<?xml version="1.0" encoding="utf-8"?>
<!-- Generator: Adobe Illustrator 27.8.0, SVG Export Plug-In . SVG Version: 6.00 Build 0)  -->
<svg version="1.1" id="Layer_1" xmlns="http://www.w3.org/2000/svg" xmlns:xlink="http://www.w3.org/1999/xlink" x="0px" y="0px"
	 viewBox="0 0 222.39 84.7" style="enable-background:new 0 0 222.39 84.7;" xml:space="preserve">
<style type="text/css">
	.st0{fill-rule:evenodd;clip-rule:evenodd;fill:#E8972B;}
	.st1{fill-rule:evenodd;clip-rule:evenodd;fill:#2B296D;}
	.st2{fill-rule:evenodd;clip-rule:evenodd;fill:#FFFFFF;}
	.st3{fill-rule:evenodd;clip-rule:evenodd;fill:#EDA238;}
	.st4{fill-rule:evenodd;clip-rule:evenodd;fill:#FAC82D;}
	.st5{fill-rule:evenodd;clip-rule:evenodd;fill:#75C1E4;}
	.st6{fill-rule:evenodd;clip-rule:evenodd;fill:#EA1F27;}
	.st7{fill:#FFFFFF;}
	.st8{fill:#E8972B;}
	.st9{fill:#2B296D;}
	.st10{fill:#2B2969;}
	.st11{fill:#8A00FF;}
	.st12{opacity:0.7;fill:#8A00FF;}
	.st13{opacity:0.2;fill:#8A00FF;}
	.st14{opacity:0.4;fill:#8A00FF;}
</style>
<g>
	<g>
		<path class="st0" d="M42.36,10.72c17.68,0,32.02,14.25,32.02,31.83c0,10.71-5.32,20.18-13.48,25.95l6.13,8.59
			c-16.13,11.27-36.18,8.8-48.02,0.44l5.49-8.56c-8.55-5.72-14.17-15.42-14.17-26.42C10.33,24.98,24.67,10.72,42.36,10.72"/>
		<path class="st1" d="M44.89,16.31c1.52,0.18,3.06,0.36,4.63,0.78l0.58-2.26c1.79,0.45,3.95,1.33,5.69,2.26l-1.08,2.13
			c1.38,0.7,2.94,1.81,3.94,2.61l1.62-1.89c1.4,1.12,2.91,2.49,4.16,4.1l-1.77,1.59c1.36,1.55,2.27,3.18,2.77,4.02l2.11-1.22
			c0.85,1.66,1.72,3.55,2.24,5.45l-2.15,0.74c0.48,1.56,0.7,2.82,0.88,4.49l2.55-0.13c0.3,1.95,0.33,4,0.06,5.94l-2.53-0.18
			c-0.16,1.78-0.27,3.33-0.77,4.99l2.22,0.68c-0.55,1.81-1.11,3.65-2.06,5.46l-2.2-1.07c-0.82,1.52-1.65,2.74-2.74,4.07l1.99,1.57
			c-1.17,1.5-2.75,2.88-4.2,4.11l-1.46-1.81c-1.34,1.1-2.56,2.05-4.1,2.88l1.06,2.18c-1.78,0.9-3.58,1.65-5.35,2.21l-0.67-2.23
			c-1.6,0.48-3.01,0.74-4.72,0.92l0.1,2.5c-1.92,0.11-3.84,0.12-5.77-0.05l0-2.38c-1.77-0.17-3.27-0.38-4.92-0.88l-0.6,2.19
			c-1.77-0.56-3.52-1.26-5.13-2.12l1.07-1.96c-1.55-0.82-2.77-1.68-4.11-2.77l-1.7,1.88c-1.6-1.24-2.91-2.64-4.07-4.04l1.73-1.57
			c-1.07-1.29-2-2.61-2.81-4.09l-2.13,1.34c-0.88-1.71-1.77-3.69-2.33-5.45l2.29-0.76c-0.46-1.66-0.8-3.12-0.94-4.82l-2.69-0.01
			c-0.11-1.91-0.1-3.74,0-5.6l2.5,0.1c0.16-1.68,0.37-3.26,0.83-4.83l-2.37-0.6c0.53-1.82,1.22-3.67,2.08-5.22l2.09,1.14
			c0.8-1.56,1.66-2.92,2.75-4.27l-1.89-1.58c1.19-1.49,2.49-2.97,4.02-4.24l1.67,1.87c1.3-1.08,2.47-2.03,3.96-2.85l-1.13-2.19
			c1.76-0.89,3.56-1.8,5.5-2.41l0.85,2.33c1.57-0.48,3.12-0.85,4.8-1.03l-0.13-2.66c1.88-0.14,3.83-0.08,5.9,0.08L44.89,16.31z"/>
		<path class="st2" d="M42.4,18.27c13.46,0,24.38,10.87,24.38,24.28c0,13.41-10.91,24.28-24.38,24.28
			c-13.46,0-24.38-10.88-24.38-24.28C18.02,29.14,28.94,18.27,42.4,18.27"/>
		<path class="st3" d="M10.38,44.17L0.02,44.5C0.01,44.03,0,43.53,0,43.06C0,19.28,18.98,0,42.38,0c23.4,0,42.38,19.28,42.38,43.06
			l-0.02,1.18l-10.39-0.37c0.02-0.43,0.03-0.87,0.03-1.3c0-17.58-14.34-31.83-32.02-31.83c-17.68,0-32.02,14.25-32.02,31.83
			C10.33,43.09,10.35,43.64,10.38,44.17"/>
		<path class="st1" d="M83.8,43.18v-0.27c0-12.83-5.82-24.99-16.04-32.99c-7.24-5.66-16.09-8.74-25.34-8.74
			c-9.25,0-18.29,2.89-25.53,8.55C6.55,17.82,0.81,30.59,1.04,43.56l9.3-0.22c-0.01-0.26-0.01-0.52-0.01-0.79
			c0-17.58,14.34-31.83,32.02-31.83c17.68,0,32.02,14.25,32.02,31.83c0,0.09,0,0.19,0,0.28L83.8,43.18z"/>
		<path class="st2" d="M80.54,35.94c-1.6,0.29-3.2,0.58-4.8,0.87c-0.05-0.19-0.1-0.38-0.14-0.58c0.51-0.09,1.02-0.19,1.53-0.28
			c0.18-0.03,0.4-0.12,0.33-0.34c-0.03-0.1-0.07-0.19-0.1-0.29c-0.05-0.15-0.09-0.21-0.28-0.21c-0.44,0.11-0.88,0.22-1.31,0.34
			c-0.2,0.05-0.37-0.04-0.41-0.25c-0.02-0.1-0.04-0.21-0.05-0.31c1.64-0.39,3.28-0.78,4.92-1.16c0.54-0.13,0.95,0.21,1.1,0.71
			c0.12,0.39,0.26,0.91-0.06,1.17C81.07,35.76,80.76,35.9,80.54,35.94 M80.19,34.36c-0.69,0.17-1.38,0.35-2.07,0.53
			c0.02,0.11,0.03,0.23,0.04,0.35c0.01,0.04,0.01,0.08,0.01,0.13c0.03,0.31,0.31,0.26,0.57,0.21l1.62-0.24
			C81.15,35.16,80.79,34.29,80.19,34.36"/>
		<path class="st2" d="M75.79,37.41c1.93-0.26,3.86-0.51,5.78-0.77c0.06-0.01,0.11-0.01,0.17-0.02c0.3,0.12,0.22,0.39-0.02,0.5
			c-0.98,0.48-1.95,0.96-2.92,1.44c0.97-0.09,1.95-0.18,2.92-0.26c0.15-0.01,0.23,0.01,0.35,0.1c0.02,0.09,0.04,0.18,0.06,0.26
			c0.04,0.14,0.01,0.24-0.16,0.29c-1.85,0.16-3.7,0.32-5.55,0.49c-0.38,0.03-0.61-0.32-0.25-0.5c0.88-0.43,1.75-0.87,2.63-1.3
			c-0.83,0.09-1.66,0.18-2.49,0.26c-0.05,0.01-0.11,0.01-0.17,0.02c-0.18,0.01-0.34,0-0.34-0.19C75.8,37.63,75.79,37.52,75.79,37.41
			"/>
		<path class="st2" d="M76.16,40.02c2.03-0.09,4.06-0.18,6.1-0.26c0.01,0.08,0.01,0.17,0.02,0.26c0.02,0.27-0.16,0.44-0.45,0.49
			c-1.76,0.06-3.51,0.13-5.26,0.19c-0.27-0.03-0.38-0.14-0.39-0.38C76.17,40.22,76.17,40.12,76.16,40.02"/>
		<path class="st2" d="M74.26,31.24c1.91-0.68,3.82-1.36,5.73-2.03c0.03,0.08,0.06,0.16,0.1,0.24c0.1,0.26,0.17,0.45-0.08,0.58
			c-1.65,0.57-3.58,1.17-5.23,1.75c-0.26,0.05-0.32-0.02-0.41-0.24C74.34,31.43,74.3,31.34,74.26,31.24"/>
		<path class="st2" d="M73.65,28.55c1.73-0.74,3.47-1.47,5.21-2.21c0.23,0.5,0.46,0.99,0.68,1.48c0.14,0.3-0.01,0.68-0.32,0.8
			c-0.9,0.36-1.8,0.73-2.7,1.09c-0.24,0.05-0.47,0.06-0.6-0.16c-0.12-0.21-0.24-0.41-0.36-0.61c-0.09-0.16-0.2-0.28-0.4-0.2
			c-0.4,0.17-0.8,0.34-1.2,0.51C73.42,29.47,73.11,28.78,73.65,28.55 M76.35,28.26c-0.15,0.08-0.17,0.15-0.11,0.29
			c0.03,0.07,0.07,0.14,0.1,0.21c0.08,0.18,0.4,0.15,0.55,0.09c0.57-0.23,1.13-0.46,1.7-0.68c0.16-0.06,0.22-0.21,0.18-0.37
			c-0.07-0.26-0.17-0.5-0.48-0.36C77.64,27.71,77,27.99,76.35,28.26"/>
		<path class="st2" d="M74.73,32.78c0.09,0.35,0.19,0.71,0.28,1.06c0.09,0.35,0.71,0.2,0.65-0.16c-0.05-0.27-0.09-0.55-0.13-0.81
			c1.68-0.51,3.35-1.01,5.03-1.52c0.29-0.09,0.13-0.7-0.24-0.6c-1.81,0.55-3.62,1.09-5.43,1.64C74.71,32.45,74.69,32.62,74.73,32.78
			"/>
		<path class="st2" d="M65,11.49c0.14,0.12,0.28,0.25,0.42,0.37c0.15-0.18,0.29-0.36,0.44-0.54c0.21-0.26,0.13-0.75-0.16-0.95
			c-0.27-0.18-0.54-0.36-0.82-0.54c-0.34-0.23-0.81-0.27-1.12,0.07c-0.23,0.25-0.45,0.5-0.67,0.75c-0.28,0.31-0.37,0.77-0.02,1.07
			c0.19,0.17,0.39,0.33,0.59,0.5c0.21,0.21,0.28,0.44,0.09,0.68c-0.35,0.43-0.7,0.87-1.06,1.3c-0.17,0.2-0.34,0.32-0.58,0.15
			c-0.07-0.05-0.14-0.1-0.21-0.14c-0.17-0.12-0.15-0.34-0.06-0.52c0.05-0.12,0.11-0.24,0.16-0.37c-0.09-0.07-0.17-0.13-0.26-0.2
			c-0.13-0.1-0.29-0.17-0.39,0.02c-0.1,0.18-0.19,0.36-0.29,0.54c-0.18,0.32-0.08,0.61,0.21,0.85c0.2,0.16,0.41,0.32,0.63,0.47
			c0.35,0.24,0.84,0.26,1.12-0.1c0.53-0.67,1.07-1.34,1.6-2.01c0.23-0.28,0.19-0.69-0.1-0.93c-0.21-0.17-0.42-0.33-0.62-0.5
			c-0.2-0.16-0.22-0.33-0.08-0.53c0.09-0.12,0.18-0.24,0.26-0.35c0.17-0.24,0.39-0.29,0.62-0.13c0.13,0.09,0.27,0.18,0.4,0.27
			c0.17,0.12,0.19,0.35,0.08,0.5C65.13,11.32,65.07,11.4,65,11.49"/>
		<path class="st2" d="M65.31,15.37c-0.2,0.2-0.41,0.4-0.61,0.61c-0.24,0.24-0.59-0.11-0.35-0.4c0.85-1.02,1.69-2.05,2.55-3.07
			c0.31-0.38,0.87,0.11,0.6,0.43c-0.1,0.12-0.22,0.27-0.32,0.39c-0.25,0.3,0.31,0.66,0.48,0.44c0.23-0.3,0.47-0.63,0.7-0.93
			c0.09-0.21,0.03-0.45-0.17-0.59c-0.18-0.13-0.36-0.25-0.54-0.38c-0.3-0.22-0.87-0.21-1.13,0.08c-1.04,1.15-1.98,2.35-2.92,3.55
			c-0.18,0.23-0.26,0.66,0.01,0.86c0.12,0.09,0.25,0.19,0.38,0.28c0.21,0.16,0.68,0.15,0.87-0.04c0.25-0.23,0.49-0.47,0.74-0.7
			c0.09-0.11,0.14-0.22,0.02-0.31C65.51,15.51,65.41,15.44,65.31,15.37"/>
		<polygon class="st2" points="69.27,13.32 69.73,13.76 65.53,17.95 65.08,17.56 		"/>
		<path class="st2" d="M67.08,18.53c0.24-0.24,0.47-0.48,0.71-0.72c0.09-0.09,0.19-0.08,0.28,0.02c0.12,0.13,0.25,0.26,0.37,0.39
			c0.19-0.16,0.39-0.32,0.59-0.48c-0.12-0.14-0.24-0.27-0.35-0.41c-0.11-0.11-0.11-0.24,0-0.34c0.54-0.53,1.09-1.07,1.64-1.6
			c0.13-0.13,0.25-0.08,0.36,0.03c0.2,0.22,0.41,0.43,0.61,0.65c0.08,0.09,0.18,0.11,0.26,0.04c0.07-0.06,0.14-0.12,0.22-0.18
			c0.11-0.09,0.11-0.26,0.01-0.36c-0.36-0.37-0.73-0.74-1.1-1.1c-0.13-0.13-0.3-0.13-0.44,0c-1.33,1.26-2.66,2.53-4,3.8
			c-0.16,0.15-0.11,0.28,0.02,0.42c0.26,0.28,0.53,0.57,0.8,0.85c0.11,0.12,0.26,0.16,0.4,0.05c0.04-0.04,0.09-0.07,0.13-0.1
			c0.14-0.11,0.12-0.26,0.01-0.38C67.44,18.91,67.26,18.72,67.08,18.53"/>
		<path class="st2" d="M68.17,20.76c0.81-0.66,1.62-1.32,2.42-1.99c-0.56,0.82-1.11,1.63-1.68,2.45c-0.08,0.12-0.15,0.31-0.04,0.43
			c0.03,0.04,0.07,0.08,0.1,0.12c0.07,0.08,0.21,0.05,0.29,0c1.54-1.13,3.06-2.25,4.6-3.38c0.13-0.09,0.14-0.16,0.06-0.27
			c-0.06-0.09-0.11-0.17-0.17-0.25c-0.08-0.13-0.28-0.1-0.39-0.02c-0.73,0.54-1.47,1.07-2.2,1.61c0.53-0.79,1.06-1.58,1.58-2.36
			c0.08-0.13,0.12-0.25,0.03-0.38c-0.13-0.19-0.27-0.32-0.51-0.13c-1.41,1.15-2.82,2.31-4.23,3.47c-0.11,0.09-0.25,0.26-0.15,0.39
			C67.99,20.54,68.08,20.65,68.17,20.76"/>
		<path class="st2" d="M71.32,25.09c0.22,0.39,0.45,0.79,0.67,1.18c0.15,0.27,0.77,0.03,0.61-0.27c-0.12-0.24-0.25-0.48-0.37-0.72
			c-0.06-0.13-0.05-0.23,0.07-0.31c0.21-0.13,0.42-0.26,0.63-0.39c0.16-0.1,0.3-0.04,0.38,0.12c0.07,0.14,0.14,0.28,0.22,0.42
			c0.08,0.16,0.2,0.22,0.36,0.14c0.11-0.06,0.21-0.11,0.32-0.17c0.14-0.07,0.23-0.18,0.13-0.33c-0.12-0.17-0.23-0.34-0.35-0.51
			c-0.09-0.21,0.03-0.32,0.2-0.42c0.61-0.37,1.22-0.73,1.83-1.1c0.11-0.07,0.28-0.12,0.36,0.02c0.15,0.27,0.3,0.54,0.45,0.81
			c0.07,0.12,0.14,0.24,0.31,0.15c0.16-0.09,0.32-0.17,0.48-0.25c-0.31-0.51-0.62-1.02-0.93-1.53c-0.11-0.18-0.29-0.21-0.46-0.11
			c-1.58,0.93-3.17,1.85-4.75,2.78C71.25,24.71,71.22,24.9,71.32,25.09"/>
		<path class="st2" d="M73.96,21.24c0.08,0.13,0.15,0.25,0.23,0.38c0.11,0.19,0.27,0.13,0.41,0.03c0.24-0.17,0.48-0.33,0.72-0.5
			c0.25-0.17,0.38-0.53,0.2-0.8c-0.17-0.26-0.35-0.52-0.53-0.79c-0.26-0.37-0.74-0.47-1.11-0.2c-1.18,0.85-2.36,1.69-3.54,2.53
			c-0.33,0.24-0.55,0.62-0.29,0.99c0.14,0.21,0.29,0.43,0.43,0.64c0.26,0.38,0.65,0.23,0.98,0.05c0.2-0.11,0.41-0.22,0.61-0.33
			c0.11-0.06,0.19-0.14,0.14-0.26c-0.03-0.08-0.07-0.16-0.1-0.23c-0.05-0.12-0.19-0.18-0.31-0.09c-0.18,0.09-0.35,0.19-0.52,0.29
			c-0.42,0.23-0.76-0.26-0.39-0.53c1.09-0.77,2.17-1.53,3.25-2.29c0.46-0.32,0.82,0.43,0.48,0.66
			C74.4,20.94,74.18,21.09,73.96,21.24"/>
		<path class="st2" d="M71.63,26.79c0.13,0.02,0.27,0.04,0.41,0.06c0.17,0.03,0.29,0.03,0.44-0.05c0.14-0.07,0.27-0.14,0.41-0.2
			c0.13-0.06,0.27-0.05,0.34,0.1c0.03,0.07,0.06,0.15,0.1,0.22c0.06,0.14-0.04,0.27-0.17,0.35c-0.1,0.06-0.19,0.11-0.29,0.17
			c-0.12,0.07-0.28,0.1-0.4,0.04C72.19,27.36,71.85,26.98,71.63,26.79"/>
		<path class="st2" d="M9.94,25.31c-0.85-0.43-1.7-0.87-2.55-1.3c-0.13-0.09-0.18-0.16-0.14-0.31c0.02-0.07,0.04-0.15,0.07-0.23
			c0.05-0.18,0.24-0.21,0.41-0.13c1.64,0.89,3.28,1.79,4.91,2.68c0.32,0.28,0.08,0.63-0.29,0.56c-0.92-0.16-1.85-0.29-2.77-0.41
			c0.86,0.39,1.73,0.78,2.59,1.18c-0.08,0.18-0.15,0.37-0.23,0.55c-1.69-0.81-3.38-1.62-5.07-2.42c-0.46-0.22-0.34-0.75,0.17-0.66
			C8.01,24.98,8.97,25.15,9.94,25.31"/>
		<path class="st2" d="M9.95,21.9c-0.09-0.04-0.18-0.09-0.27-0.13c-0.17-0.08-0.3-0.03-0.41,0.13c-0.13,0.21-0.24,0.45,0.01,0.61
			c0.15,0.1,0.31,0.2,0.46,0.31c0.2,0.13,0.42-0.02,0.53-0.2c0.1-0.14,0.19-0.28,0.29-0.43c0.16-0.25,0.56-0.26,0.79-0.11
			c0.79,0.53,1.58,1.05,2.37,1.58c0.01,0.18,0.01,0.37,0.02,0.55c-0.19,0.25-0.39,0.51-0.58,0.76c-0.15,0.2-0.33,0.31-0.6,0.23
			c-0.17-0.1-0.35-0.2-0.52-0.31c-0.18-0.09-0.1-0.65,0.35-0.52c0.07,0.04,0.14,0.08,0.22,0.11c0.29,0.16,0.6-0.3,0.3-0.5
			c-0.56-0.38-1.13-0.76-1.69-1.14c-0.08-0.07-0.16-0.07-0.24-0.02c-0.34,0.49-0.63,1.07-1.25,0.72c-0.35-0.2-0.69-0.39-1.04-0.59
			c-0.38-0.21-0.51-0.69-0.25-1.08c0.14-0.22,0.28-0.43,0.42-0.64c0.17-0.26,0.5-0.41,0.79-0.21c0.22,0.15,0.44,0.3,0.66,0.46
			C10.19,21.63,10.07,21.77,9.95,21.9"/>
		<path class="st2" d="M10.76,18.62c0.07,0.04,0.14,0.09,0.21,0.14c0.09,0.06,0.13,0.17,0.08,0.27c-0.14,0.21-0.2,0.38,0,0.54
			c1.32,1,2.64,1.99,3.97,2.99c0.06,0.06,0.07,0.13,0.03,0.2c-0.04,0.07-0.09,0.13-0.14,0.2c-0.07,0.11-0.13,0.15-0.27,0.09
			c-1.36-0.98-2.73-1.95-4.09-2.93c-0.13-0.08-0.21-0.07-0.27,0.05c-0.08,0.14-0.12,0.28-0.32,0.2c-0.08-0.03-0.16-0.07-0.24-0.1
			c-0.17-0.07-0.22-0.19-0.1-0.36c0.26-0.4,0.53-0.79,0.79-1.19C10.52,18.58,10.63,18.53,10.76,18.62"/>
		<path class="st2" d="M13.38,15.63c0.07,0.05,0.13,0.1,0.2,0.15c0.08,0.07,0.11,0.18,0.04,0.28c-0.16,0.19-0.35,0.37-0.16,0.55
			c1.19,1.1,2.39,2.2,3.58,3.3c0.18,0.17,0.02,0.31-0.09,0.45c-0.08,0.1-0.14,0.11-0.27,0.05c-1.26-1.1-2.51-2.2-3.77-3.3
			c-0.07-0.06-0.16-0.06-0.24-0.04c-0.14,0.12-0.29,0.43-0.49,0.33c-0.21-0.11-0.54-0.28-0.28-0.55l1.12-1.17
			C13.15,15.57,13.26,15.53,13.38,15.63"/>
		<path class="st2" d="M11.02,18.05c1.5,1.19,2.99,2.39,4.49,3.58c0.32,0.26,0.7-0.24,0.39-0.49c-1.5-1.19-2.99-2.37-4.49-3.56
			C11.28,17.74,11.15,17.9,11.02,18.05"/>
		<path class="st2" d="M17.98,11.43c0.06,0.06,0.11,0.12,0.17,0.19c0.07,0.08,0.08,0.2,0,0.28c-0.19,0.16-0.44,0.37-0.29,0.57
			c1.01,1.26,2.02,2.53,3.02,3.8c0.15,0.19-0.02,0.31-0.16,0.43c-0.09,0.09-0.16,0.09-0.27,0.01c-1.07-1.28-2.14-2.55-3.2-3.83
			c-0.06-0.06-0.15-0.09-0.23-0.07c-0.15,0.1-0.41,0.41-0.59,0.29c-0.19-0.14-0.49-0.35-0.19-0.59l1.38-1.08
			C17.76,11.33,17.88,11.31,17.98,11.43"/>
		<path class="st2" d="M18.48,10.77c0.71-0.5,1.42-1,2.13-1.5c0.12,0.22,0.24,0.44,0.37,0.66c-0.38,0.23-0.76,0.47-1.14,0.7
			c-0.27,0.16-0.27,0.37-0.11,0.59c0.45,0.62,0.89,1.23,1.33,1.85c0.34-0.24,0.67-0.48,1.01-0.72c0.11,0.17,0.23,0.35,0.35,0.52
			c0.09,0.14,0.05,0.26-0.1,0.38c-0.23,0.18-0.45,0.36-0.68,0.54c0.17,0.26,0.33,0.51,0.5,0.76c0.07,0.11,0.19,0.1,0.3,0.03
			c0.38-0.24,0.76-0.49,1.14-0.73c0.06,0.09,0.13,0.19,0.19,0.28c0.1,0.14,0.03,0.31-0.09,0.42c-0.55,0.36-1.1,0.71-1.65,1.06
			C20.86,14.01,19.67,12.39,18.48,10.77"/>
		<path class="st2" d="M14.29,14.58c1.15,1.12,2.31,2.24,3.47,3.36c0.11,0.11,0.31,0.25,0.5,0.11l0.21-0.22
			c0.14-0.14,0.11-0.31-0.02-0.45c-1.17-1.22-2.33-2.44-3.5-3.67c0.16-0.17,0.32-0.33,0.48-0.5c1.23,1.32,2.46,2.65,3.69,3.97
			c0.2,0.21,0.28,0.5,0.04,0.74c-0.23,0.23-0.44,0.47-0.68,0.7c-0.3,0.3-0.73,0.17-1-0.08c-1.2-1.14-2.4-2.29-3.6-3.44
			c-0.1-0.1-0.15-0.21-0.04-0.3c0.08-0.07,0.17-0.14,0.24-0.21C14.18,14.5,14.19,14.48,14.29,14.58"/>
		<path class="st2" d="M5.81,26.6c1.84,0.83,3.67,1.65,5.51,2.47c0.1-0.19,0.2-0.39,0.3-0.59c-1.74-0.8-3.47-1.59-5.21-2.38
			c-0.14-0.07-0.32-0.08-0.4,0.09C5.94,26.33,5.88,26.46,5.81,26.6"/>
		<path class="st1" d="M25.34,69.52l-5.05,7.9c11.29,7.76,30.82,9.41,45.34-0.61l-5.53-7.75c-5.08,3.37-11.18,5.33-17.74,5.33
			C36.1,74.38,30.27,72.6,25.34,69.52"/>
		<path class="st4" d="M55.31,22.98c6.38,4.19,10.6,11.39,10.6,19.57c0,12.93-10.53,23.41-23.5,23.41L55.31,22.98z"/>
		<path class="st5" d="M42.79,65.96c-0.13,0-0.26,0-0.39,0c-12.98,0-23.5-10.48-23.5-23.41c0-7.82,3.85-14.74,9.76-19L42.79,65.96z"
			/>
		<path class="st6" d="M42.4,19.14c4.49,0,8.69,1.26,12.26,3.43L42.64,62.93L29.38,23.06C33.11,20.59,37.58,19.14,42.4,19.14"/>
		<polygon class="st0" points="43.52,29.17 49.45,33.49 45.97,35.98 42.08,33.02 40.88,32.15 		"/>
		<path class="st7" d="M45.96,36.28l-4.03-3.07l-1.41-1.03l2.96-3.34l6.38,4.65L45.96,36.28z M41.23,32.11l0.99,0.72l3.75,2.85
			l3.07-2.19l-5.49-4L41.23,32.11z"/>
		<polygon class="st0" points="42.22,21.69 39.64,25.91 42.08,31.83 44.67,25.93 		"/>
		<path class="st7" d="M42.07,32.45l-2.7-6.56l2.85-4.66l2.72,4.69L42.07,32.45z M39.91,25.93l2.17,5.29l2.32-5.28l-2.19-3.78
			L39.91,25.93z"/>
		<polygon class="st0" points="42.56,28.38 45.51,24.04 47.54,29.74 42.13,33.3 		"/>
		<path class="st7" d="M41.85,33.78l0.48-5.49l3.25-4.78l2.25,6.33L41.85,33.78z M42.8,28.46l-0.38,4.37l4.84-3.19l-1.8-5.08
			L42.8,28.46z"/>
		<polygon class="st0" points="40.56,29.2 34.62,33.42 38.03,36.05 42.04,33.02 		"/>
		<path class="st7" d="M38.03,36.35l-3.81-2.95l6.45-4.58l1.66,4.28L38.03,36.35z M35.03,33.43l3,2.33l3.72-2.81l-1.31-3.36
			L35.03,33.43z"/>
		<polygon class="st0" points="41.35,27.92 38.97,23.5 36.91,29.61 41.86,33.12 42.76,31.31 		"/>
		<path class="st7" d="M41.95,33.48l-5.32-3.77l2.29-6.8l2.65,4.92l1.46,3.49L41.95,33.48z M37.2,29.52l4.57,3.24l0.73-1.46
			l-1.37-3.28l-2.12-3.92L37.2,29.52z"/>
		<polygon class="st0" points="42.31,26.96 40.24,29.26 42.2,33.04 44.17,29.28 		"/>
		<path class="st7" d="M42.19,33.56l-2.25-4.33l2.37-2.64l2.14,2.67L42.19,33.56z M40.53,29.3l1.67,3.22l1.68-3.21l-1.59-1.98
			L40.53,29.3z"/>
		<rect x="41.66" y="39.92" class="st0" width="1.15" height="15.08"/>
		<path class="st7" d="M43.05,55.24h-1.63V39.68h1.63V55.24z M41.9,54.76h0.67v-14.6H41.9V54.76z"/>
		<polygon class="st0" points="42.22,40.92 39.47,36.2 42.08,32.97 44.63,36.23 		"/>
		<path class="st7" d="M42.23,41.42l-3.05-5.24l2.9-3.59l2.84,3.61L42.23,41.42z M39.76,36.22l2.44,4.2l2.14-4.17l-2.27-2.9
			L39.76,36.22z"/>
		<path class="st2" d="M25.64,6.86c0.81,1.72,1.63,3.43,2.45,5.15c0.14-0.04,0.28-0.08,0.42-0.12c0.03-0.12,0.06-0.24,0.08-0.35
			c-0.18-0.37-0.36-0.74-0.53-1.11c-0.01-0.03-0.03-0.05-0.04-0.08c-0.14-0.27,0.12-0.42,0.36-0.51c0.19-0.07,0.29-0.14,0.21-0.32
			C28.54,9.4,28.5,9.3,28.46,9.2c-0.07-0.14-0.16-0.08-0.26-0.02c-0.27,0.14-0.61,0.32-0.77-0.05c-0.29-0.65-0.58-1.3-0.87-1.95
			c-0.08-0.17-0.09-0.37,0.12-0.45c0.17-0.08,0.35-0.15,0.52-0.22c0.15-0.06,0.27-0.15,0.21-0.31c-0.05-0.15-0.11-0.29-0.16-0.44
			c-0.45,0.18-0.91,0.37-1.36,0.56C25.6,6.43,25.51,6.59,25.64,6.86"/>
		<path class="st2" d="M23.26,8.89c0.65,1.15,1.29,2.29,1.94,3.44c0.27,0.32,0.56,0.44,0.87,0.37c0.24-0.08,0.48-0.2,0.72-0.38
			c0.26-0.19,0.31-0.54,0.19-0.81c-0.58-1.29-1.19-2.59-1.84-3.88c-0.23-0.44-0.53-0.5-0.94-0.32c-0.21,0.1-0.43,0.19-0.64,0.29
			C23.05,7.83,23.07,8.47,23.26,8.89 M24.58,8.13c0.57,1.16,1.14,2.32,1.7,3.48c0.24,0.49-0.29,0.77-0.55,0.29
			c-0.58-1.07-1.16-2.13-1.75-3.2C23.73,8.24,24.24,7.66,24.58,8.13"/>
		<path class="st2" d="M31.57,4.56c0.03,0.07,0.06,0.15,0.09,0.23c0.04,0.1,0,0.21-0.1,0.26c-0.24,0.08-0.55,0.18-0.48,0.42
			c0.45,1.5,0.91,3,1.36,4.49c0.07,0.23-0.13,0.27-0.31,0.34c-0.12,0.04-0.18,0.03-0.26-0.09c-0.51-1.53-1.01-3.06-1.52-4.58
			c-0.03-0.08-0.11-0.13-0.19-0.14c-0.18,0.04-0.54,0.23-0.65,0.06c-0.12-0.19-0.32-0.49,0.05-0.6l1.69-0.51
			C31.4,4.4,31.52,4.42,31.57,4.56"/>
		<path class="st2" d="M32.13,4.21C32.65,4.1,33.17,4,33.69,3.89c0.06-0.01,0.11-0.02,0.16-0.03c0.44-0.1,0.59,0.57,0.07,0.64
			c-0.16,0.03-0.31,0.05-0.47,0.08c-0.31,0.05-0.39,0.24-0.33,0.49c0.17,0.71,0.35,1.43,0.52,2.14c0.2-0.03,0.6-0.15,0.79-0.1
			c0.26,0.06,0.33,0.58,0.08,0.7c-0.23,0.11-0.65,0.07-0.59,0.38c0.05,0.25,0.1,0.5,0.14,0.75c0.02,0.13,0.13,0.16,0.27,0.14
			C34.78,9.01,34.76,9,35.2,8.92c0.03,0.11,0.05,0.22,0.07,0.32c0.04,0.16-0.09,0.29-0.25,0.35c-0.65,0.12-0.82,0.17-1.47,0.29
			C33.08,7.99,32.61,6.1,32.13,4.21"/>
		<path class="st2" d="M40.81,8.54c-0.06-1.8-0.11-3.67-0.16-5.46c0.26-0.06,0.59-0.06,0.68,0.21c0.23,0.71,0.46,1.42,0.69,2.12
			V3.33c0-0.15,0.01-0.2,0.16-0.28c0.08,0,0.17,0,0.25,0c0.19,0.01,0.23-0.03,0.23,0.18c-0.01,1.83-0.02,3.65-0.03,5.47
			c-0.12,0-0.24,0-0.37,0c-0.23,0-0.29-0.44-0.3-0.61c-0.18-0.66-0.36-1.32-0.53-1.99c0.03,0.78,0.07,1.56,0.11,2.34
			c0,0.12-0.07,0.31-0.23,0.31c-0.09,0-0.19,0-0.29,0.01C40.8,8.78,40.82,8.72,40.81,8.54"/>
		<path class="st2" d="M38.47,3.13c0.12,1.04,0.25,2.08,0.38,3.12c0.04,0.13,0.16,0.16,0.27,0.15c0.11-0.01,0.23-0.04,0.24-0.15
			c-0.04-1-0.08-2-0.13-3c-0.01-0.29,0.63-0.31,0.65-0.01C40,4.98,40.11,6.76,40.22,8.5c0.02,0.38-0.52,0.52-0.55,0.14l-0.15-1.6
			l-0.68,0.04c0.04,0.44,0.07,1.11,0.11,1.54c0.04,0.42-0.51,0.45-0.56,0.08c-0.2-1.76-0.4-3.53-0.6-5.29c0-0.2,0.08-0.3,0.27-0.29
			C38.2,3.12,38.34,3.13,38.47,3.13"/>
		<path class="st2" d="M48.88,4.71c-0.2,1.29-0.41,2.57-0.61,3.86c0.01,0.41,0.17,0.68,0.46,0.8c0.24,0.08,0.5,0.11,0.8,0.11
			c0.32,0,0.58-0.25,0.66-0.54c0.35-1.36,0.67-2.75,0.96-4.15c0.1-0.48-0.11-0.71-0.54-0.79c-0.23-0.05-0.46-0.09-0.69-0.14
			C49.38,3.74,48.99,4.26,48.88,4.71 M50.4,4.86c-0.27,1.25-0.54,2.35-0.82,3.6c-0.12,0.53-0.71,0.45-0.62-0.09
			c0.2-1.18,0.44-2.21,0.64-3.4C49.69,4.46,50.42,4.29,50.4,4.86"/>
		<path class="st2" d="M43.43,4.1c-0.03,1.3-0.05,2.59-0.08,3.89c0.07,0.41,0.26,0.65,0.56,0.73c0.24,0.05,0.51,0.05,0.81,0.01
			c0.32-0.04,0.54-0.32,0.58-0.61c0.16-1.39,0.28-2.8,0.37-4.23c0.03-0.49-0.21-0.68-0.65-0.72c-0.23-0.02-0.46-0.03-0.7-0.05
			C43.79,3.08,43.48,3.64,43.43,4.1 M44.96,4.06c-0.1,1.27-0.22,2.39-0.32,3.66c-0.04,0.54-0.64,0.53-0.62-0.01
			c0.04-1.2,0.13-2.25,0.17-3.45C44.2,3.76,44.9,3.5,44.96,4.06"/>
		<path class="st2" d="M47.09,3.46c-0.17,1.67-0.35,3.35-0.52,5.02c0.21,0.04,0.54,0.08,0.75,0.11c0.35,0.06,0.25,0.61-0.11,0.59
			c-0.2-0.01-0.57-0.02-0.77-0.03c-0.64-0.04-0.61-0.16-0.57-0.71c0.12-1.72,0.32-3.41,0.57-5.08c0.01-0.11,0-0.1,0.12-0.09
			c0.14,0.01,0.28,0.03,0.43,0.04C47.13,3.33,47.11,3.32,47.09,3.46"/>
		<path class="st2" d="M55.31,5.3c-0.33,0.96-0.66,1.91-1,2.87c-0.07,0.33-0.03,0.67,0.19,1.01c-0.21,0.55-0.42,1.11-0.63,1.66
			c0.18,0.06,0.36,0.12,0.54,0.18c0.22-0.46,0.44-0.91,0.66-1.37c0.08-0.17,0.25-0.22,0.46-0.21c0.23,0.02,0.35-0.09,0.46-0.29
			c0.47-1.07,0.94-2.14,1.41-3.22c0.09-0.22-0.11-0.22-0.31-0.32c-0.2-0.1-0.3,0.1-0.37,0.25c-0.37,0.83-0.75,1.65-1.09,2.49
			c-0.16,0.38-0.76,0.33-0.6-0.13c0.33-0.93,0.66-1.85,1.01-2.78C56.14,5.09,55.39,4.99,55.31,5.3"/>
		<path class="st2" d="M54.14,6.3c0.11-0.3,0.22-0.59,0.33-0.89c0.02-0.29-0.11-0.56-0.39-0.68c-0.21-0.09-0.42-0.19-0.63-0.28
			c-0.56-0.24-1.14-0.05-1.42,0.48c-0.37,1.29-0.74,2.59-1.1,3.89c-0.11,0.38-0.06,0.96,0.4,1.12c0.36,0.13,0.72,0.26,1.09,0.39
			c0.24,0.09,0.36-0.09,0.43-0.28c0.21-0.55,0.41-1.09,0.62-1.64c0.11-0.28,0.03-0.49-0.3-0.57c-0.12-0.03-0.23-0.06-0.35-0.08
			c-0.31-0.08-0.39-0.07-0.51,0.21c-0.09,0.22-0.04,0.35,0.16,0.44c0.11,0.05,0.13,0.17,0.08,0.29c-0.07,0.18-0.14,0.35-0.21,0.53
			c-0.22,0.57-0.84,0.1-0.7-0.41c0.3-1.09,0.59-2.17,0.9-3.26c0.11-0.33,0.45-0.61,0.81-0.43c0.25,0.13,0.43,0.23,0.28,0.54
			c-0.1,0.14-0.11,0.28-0.05,0.45C53.76,6.17,53.95,6.23,54.14,6.3"/>
		<path class="st2" d="M37.2,4.85c-0.02-0.29-0.02-0.58-0.06-0.86c-0.12-0.87-2.4-0.61-2.09,0.67c0.31,1.32,0.53,2.66,0.8,4
			c0.06,0.31,0.32,0.48,0.67,0.49c0.56-0.02,1.2-0.14,1.17-0.8c-0.01-0.28-0.02-0.54-0.04-0.82c-0.11-0.36-0.77-0.3-0.77,0.03
			c0.02,0.18,0.03,0.32,0.04,0.5c0.04,0.5-0.4,0.6-0.5,0.1c-0.23-1.2-0.47-2.41-0.7-3.62c-0.1-0.51,0.54-0.62,0.68-0.11
			c0.04,0.15,0.09,0.3,0.13,0.46c0.06,0.19,0.11,0.2,0.23,0.21C36.97,5.09,37.21,5.14,37.2,4.85"/>
		<path class="st2" d="M59.35,9.39c0.6-0.18,1.16-0.37,1.42-0.98c0.14-0.32,0.13-0.59,0.04-0.83c-0.16-0.41-0.78-0.77-1.27-0.75
			c-0.7,0.04-1,1.21-0.99,1.77c-0.17,0.11-0.31,0.25-0.44,0.42c-0.33,0.73-0.67,1.45-1,2.17c-0.13,0.29-0.17,0.63,0.09,0.84
			c0.21,0.17,0.44,0.32,0.68,0.46c0.19,0.1,0.33,0.13,0.55,0.07c0.1-0.04,0.28-0.12,0.38-0.16c0.1,0.32,0.02,0.55,0.13,0.72
			c0.04,0.06,0.1,0.11,0.19,0.16c0.31,0.16,0.29-0.06,0.28-0.32c-0.02-0.46-0.04-0.92-0.05-1.38c0.23-0.22,0.47-0.45,0.71-0.67
			c-0.07-0.11-0.14-0.21-0.2-0.32c-0.07-0.08-0.15-0.08-0.22,0c-0.33,0.22-0.29-0.05-0.29-0.28C59.35,10.01,59.34,9.7,59.35,9.39
			 M59.84,8.49c-0.98,0.62-0.61-1.35,0.11-0.89C60.32,7.78,60.14,8.31,59.84,8.49 M58.63,9.98c0.02,0.49,0.05,1.08,0.07,1.57
			c-0.14,0.12-0.29,0.23-0.43,0.29c-0.46,0.18-0.54-0.26-0.4-0.57C58.08,10.79,58.61,9.55,58.63,9.98"/>
		<path class="st2" d="M26.21,79.19c-0.15-0.3-0.3-0.6-0.45-0.9c-0.1-0.4,0-0.57,0.23-0.57c0.12,0,0.22,0.02,0.35,0
			c0.77-0.12,0.84-1.01,0.05-1.76v-0.39c0.1,0,0.2,0,0.29,0c0.35,0.14,0.7,0.29,1.04,0.44c0.18,0.1,0.57,0.22,0.4,0.64
			c-0.33,0.79-0.63,1.48-0.96,2.26c0.21,0.1,0.42,0.2,0.62,0.3c0.5-1.18,0.99-2.37,1.49-3.55c0.01-0.04,0.03-0.08,0.05-0.11
			c0.09-0.19,0.62-0.06,0.63,0.21c-0.46,1.24-0.93,2.49-1.4,3.73c0.19,0.09,0.38,0.19,0.57,0.28c0.46-1.22,0.93-2.43,1.39-3.65
			c0.03-0.22,0.12-0.23,0.29-0.18c0.69,0.21,1.41,0.44,2.09,0.65c0.19,0.05,0.35,0.12,0.27,0.38c-0.07,0.26-0.14,0.53-0.21,0.79
			c-0.06,0.23-0.13,0.32-0.41,0.28c-0.44-0.14-0.92-0.33-1.36-0.42c-0.52-0.11-0.6,0.29-0.74,0.83c-0.08,0.51,0.53,0.71,0.85,0.38
			c0.15-0.16,0.22-0.33,0.26-0.51c0.27,0.06,0.55,0.11,0.82,0.17c0.27,0.07,0.34,0.18,0.26,0.48c-0.11,0.43-0.31,1.01-0.42,1.44
			l0.57,0.21c0.28-1.05,0.66-2.38,0.94-3.44c0.08-0.4,0.28-0.27,0.51-0.23l0.22-0.43l-0.24-0.08c-1.26-0.33-2.51-0.69-3.74-1.13
			c-1.69-0.6-3.3-1.4-4.9-2.21c-0.08,0.11-0.16,0.23-0.24,0.34c1.06,0.57,2.14,1.13,3.36,1.63c0.01,0.12,0.02,0.24,0.02,0.36
			c-0.05,0.08-0.1,0.16-0.14,0.24c-0.07,0.02-0.15,0.03-0.22,0.04c-0.53-0.2-1.05-0.39-1.57-0.59c-0.67-0.25-1.35,0.07-0.99,0.77
			c0.1,0.21,0.23,0.42,0.39,0.62c0.43,0.53-0.11,0.94-0.48,0.69c-0.11-0.07-0.18-0.18-0.2-0.29c-0.11-0.46-0.33-0.82-0.64-1.05
			c-0.36-0.27-0.95-0.25-1.08,0.21c-0.23,0.82,0.63,1.52,1.31,1.75c0.24,0.54,0.48,1.08,0.72,1.62
			C25.94,79.34,26.07,79.27,26.21,79.19 M25.01,77.01c0.03,0.14-0.05,0.21-0.22,0.12C23.63,76.26,24.73,75.62,25.01,77.01"/>
		<path class="st7" d="M32.82,80.67l-0.66-0.24l0.01-0.04c0.05-0.2,0.12-0.44,0.2-0.68c0.08-0.26,0.16-0.53,0.22-0.76
			c0.04-0.14,0.04-0.24,0-0.3c-0.03-0.06-0.1-0.1-0.23-0.13c-0.18-0.05-0.36-0.08-0.55-0.12c-0.08-0.02-0.16-0.03-0.23-0.05
			c-0.05,0.2-0.13,0.35-0.26,0.49c-0.22,0.23-0.63,0.22-0.82,0c-0.07-0.08-0.14-0.21-0.11-0.42l0.02-0.07
			c0.11-0.44,0.21-0.82,0.61-0.82c0.05,0,0.11,0.01,0.17,0.02c0.32,0.07,0.65,0.18,0.97,0.29c0.13,0.05,0.26,0.09,0.39,0.13
			c0.03,0,0.07,0.01,0.1,0.01c0.15,0,0.2-0.07,0.25-0.26l0.22-0.79c0.02-0.08,0.02-0.15,0-0.2c-0.04-0.07-0.14-0.1-0.23-0.13
			l-2.09-0.65c-0.05-0.02-0.1-0.02-0.12-0.02c-0.04,0-0.09,0-0.11,0.16l-1.41,3.71L28.5,79.5l1.41-3.77
			c-0.01-0.14-0.23-0.24-0.39-0.24c-0.08,0-0.14,0.02-0.16,0.06l-1.55,3.71l-0.71-0.34l0.02-0.04c0.17-0.39,0.32-0.77,0.48-1.14
			c0.15-0.37,0.32-0.74,0.48-1.12c0.13-0.33-0.11-0.44-0.3-0.54c-0.03-0.01-0.05-0.03-0.08-0.04l-1.04-0.44l-0.23,0.01v0.32
			c0.45,0.44,0.65,0.95,0.52,1.34c-0.08,0.26-0.3,0.44-0.61,0.48c-0.08,0.01-0.15,0.01-0.23,0.01c-0.03,0-0.07-0.01-0.11-0.01
			c-0.1,0-0.16,0.03-0.19,0.07c-0.06,0.08-0.06,0.23-0.01,0.44l0.47,0.93l-0.49,0.28l-0.73-1.65c-0.7-0.25-1.56-0.96-1.32-1.8
			c0.08-0.26,0.3-0.42,0.6-0.42c0.19,0,0.4,0.07,0.56,0.18c0.32,0.24,0.55,0.6,0.66,1.08c0.03,0.12,0.09,0.2,0.19,0.27
			c0.18,0.12,0.45,0.05,0.54-0.13c0.07-0.14,0.03-0.32-0.12-0.49c-0.14-0.18-0.27-0.37-0.4-0.62c-0.16-0.32-0.1-0.53-0.03-0.64
			c0.11-0.18,0.33-0.28,0.61-0.28c0.15,0,0.31,0.03,0.47,0.09l1.55,0.59l0.19-0.03l0.12-0.21l-0.02-0.31
			c-1.22-0.51-2.33-1.07-3.34-1.61l-0.05-0.03l0.3-0.42l0.04,0.02c1.54,0.79,3.19,1.6,4.89,2.21c1.1,0.39,2.29,0.75,3.73,1.13
			l0.29,0.1L34.26,77l-0.03,0c-0.04-0.01-0.07-0.02-0.11-0.03c-0.06-0.01-0.11-0.02-0.15-0.02c-0.08,0-0.15,0.03-0.19,0.24
			c-0.14,0.53-0.31,1.13-0.47,1.72c-0.16,0.59-0.33,1.19-0.47,1.71L32.82,80.67z M32.27,80.37l0.49,0.17
			c0.14-0.51,0.3-1.09,0.45-1.67c0.17-0.6,0.33-1.19,0.47-1.72c0.05-0.22,0.13-0.32,0.28-0.32c0.05,0,0.11,0.01,0.17,0.03
			c0.02,0.01,0.05,0.01,0.07,0.01l0.18-0.35l-0.19-0.06c-1.44-0.38-2.64-0.73-3.74-1.13c-1.69-0.61-3.33-1.42-4.87-2.19l-0.19,0.27
			c1,0.54,2.1,1.1,3.31,1.6l0.02,0.01l0.03,0.4l-0.16,0.27l-0.26,0.05l-1.58-0.59c-0.14-0.05-0.29-0.08-0.43-0.08
			c-0.25,0-0.44,0.09-0.53,0.24c-0.09,0.14-0.08,0.33,0.03,0.55c0.12,0.24,0.25,0.44,0.38,0.61c0.17,0.2,0.22,0.42,0.14,0.59
			c-0.11,0.23-0.44,0.32-0.68,0.17c-0.12-0.08-0.19-0.19-0.23-0.33c-0.11-0.46-0.32-0.8-0.63-1.02c-0.15-0.1-0.32-0.16-0.5-0.16
			c-0.26,0-0.44,0.13-0.51,0.35c-0.22,0.79,0.61,1.46,1.28,1.69l0.02,0.01l0.7,1.59l0.33-0.18l-0.43-0.86
			c-0.07-0.26-0.06-0.43,0.02-0.53c0.05-0.07,0.14-0.11,0.25-0.11c0.05,0,0.09,0,0.13,0c0.07,0,0.14,0.01,0.21,0
			c0.27-0.04,0.46-0.19,0.54-0.42c0.11-0.36-0.08-0.84-0.52-1.26l-0.01-0.01v-0.46l0.35-0.01l0.01,0l1.04,0.44
			c0.02,0.01,0.05,0.03,0.08,0.04c0.19,0.09,0.52,0.25,0.35,0.66c-0.17,0.39-0.32,0.76-0.48,1.12c-0.15,0.36-0.3,0.71-0.47,1.09
			l0.54,0.26l1.52-3.62c0.04-0.08,0.12-0.12,0.24-0.12c0.19,0,0.47,0.12,0.48,0.35l-1.39,3.71l0.48,0.23l1.37-3.6
			c0.01-0.1,0.04-0.24,0.2-0.24c0.04,0,0.09,0.01,0.16,0.03l2.09,0.65c0.11,0.03,0.23,0.07,0.29,0.17c0.04,0.07,0.04,0.16,0.01,0.27
			L33,77.76c-0.06,0.21-0.12,0.37-0.47,0.31c-0.14-0.04-0.27-0.09-0.4-0.13c-0.32-0.11-0.65-0.22-0.97-0.29
			c-0.44-0.1-0.54,0.24-0.67,0.73l-0.02,0.06c-0.02,0.13,0.01,0.25,0.09,0.34c0.16,0.18,0.49,0.19,0.68,0
			c0.12-0.13,0.2-0.28,0.25-0.48l0.01-0.05l0.04,0.01c0.09,0.02,0.19,0.04,0.27,0.06c0.19,0.04,0.37,0.07,0.55,0.12
			c0.15,0.04,0.24,0.09,0.29,0.17c0.05,0.08,0.05,0.2,0.01,0.37c-0.06,0.23-0.14,0.5-0.22,0.76C32.39,79.96,32.32,80.18,32.27,80.37
			 M24.93,77.22c-0.05,0-0.1-0.02-0.16-0.05c-0.49-0.36-0.59-0.68-0.53-0.86c0.03-0.09,0.11-0.15,0.21-0.15
			c0.22,0,0.49,0.26,0.61,0.85c0.01,0.07,0,0.13-0.03,0.17C25.01,77.19,24.98,77.22,24.93,77.22 M24.45,76.25
			c-0.06,0-0.1,0.03-0.12,0.09c-0.05,0.15,0.08,0.45,0.49,0.75c0.11,0.06,0.14,0.03,0.14,0.02c0.01-0.02,0.01-0.05,0.01-0.09
			C24.86,76.49,24.62,76.25,24.45,76.25"/>
		<path class="st2" d="M50.59,77.21c0.06,0.3,0.1,0.6,0.13,0.9c-0.64,0.15-1.27,0.3-1.9,0.45c-0.52,0.12-0.84,0.46-0.78,0.97
			c0.05,0.47,0.29,1.04,0.8,1.01c0.71-0.04,1.41-0.17,2.11-0.37c0.17-0.05,0.35-0.09,0.39,0.14c0.06,0.23,0.12,0.46,0.18,0.69
			c0.19-0.07,0.38-0.13,0.57-0.2c-0.31-1.24-0.63-2.48-0.93-3.72c1.1-0.34,2.21-0.68,3.31-1.02c0.1,0.35,0.2,0.7,0.3,1.05
			c0.03,0.19-0.1,0.38-0.41,0.56c-0.99-0.26-1.86,0.36-1.95,1.33c-0.1,1.1,0.77,1.39,1.65,1.49c0.34,0.04,0.39-0.31,0.1-0.46
			c-0.1-0.05-0.22-0.05-0.32-0.1c-0.55-0.23-0.94-0.63-0.65-1.29c0.1-0.23,0.39-0.53,0.67-0.47c0.19,0.05,0.21,0.13,0.21,0.29
			c-0.01,0.41,0.34,0.41,0.56,0.08c0.55-0.82,1.46-1.22,1.76-0.88c0.34,0.38-0.21,1.41-0.38,1.75c0.13,0.08,0.26,0.17,0.4,0.25
			c0.61-0.96,1.45-3.17-0.93-2.79c-0.11-0.27-0.22-0.53-0.34-0.8c-0.12-0.29,0.06-0.41,0.33-0.52c0.46-0.19,0.92-0.38,1.38-0.58
			c0.19-0.08,0.38-0.18,0.49,0.08c0.11,0.27,0.23,0.53,0.34,0.8c0.07,0.17,0.17,0.34-0.04,0.47c-0.12,0.07-0.21,0.18-0.22,0.35
			c-0.02,0.19,0.12,0.52,0.3,0.74c0.33,0.41,1.21,0.28,1.11-0.36c-0.06-0.15-0.12-0.31-0.17-0.46c0.47-0.26,0.94-0.52,1.41-0.77
			c0.29,0.54,0.59,1.07,0.88,1.61c0.18-0.1,0.35-0.21,0.53-0.31c-0.61-1.15-1.24-2.36-1.85-3.51l0.56-0.37l-0.29-0.53
			c-0.25,0.16-0.48,0.29-0.74,0.44c-4.07,2.27-7.94,3.44-11.68,3.92v0.68C47.45,77.77,50.59,77.23,50.59,77.21 M49.23,79.06
			c0.04,0.01,0.62,0.81,0.62,0.81c-0.29,0.08-0.98,0.29-1.13-0.07C48.53,79.37,48.66,79.09,49.23,79.06 M49.59,78.92
			c0.38-0.04,0.78-0.1,1.16-0.2c0.11,0.01,0.21,0.06,0.28,0.21c-0.01,0.15,0.01,0.3,0.06,0.45c-0.01,0.07-0.03,0.13-0.08,0.2
			c-0.27,0.07-0.54,0.15-0.81,0.23C50,79.51,49.79,79.21,49.59,78.92 M57.82,74.88c-0.07-0.2-0.03-0.34,0.16-0.42
			c0.14-0.06,0.65-0.32,0.79-0.38c0.27-0.11,0.42,0.05,0.52,0.26c0.13,0.25,0.26,0.51,0.39,0.77c0.03,0.12,0,0.23-0.11,0.33
			c-0.28,0.13-0.91,0.44-1.19,0.57C58.18,75.63,58.02,75.25,57.82,74.88"/>
		<path class="st7" d="M51.48,81.07l-0.19-0.74c-0.02-0.13-0.08-0.15-0.15-0.15c-0.06,0-0.12,0.02-0.18,0.04
			c-0.71,0.2-1.43,0.33-2.12,0.37c-0.51,0.03-0.79-0.51-0.85-1.05c-0.05-0.52,0.24-0.89,0.82-1.02l1.86-0.44
			c-0.02-0.25-0.06-0.52-0.12-0.81c-0.2,0.05-0.86,0.17-3.1,0.56l-0.06,0.01v-0.78l0.04,0c4.06-0.52,7.87-1.81,11.66-3.92
			c0.29-0.16,0.52-0.3,0.74-0.44l0.04-0.03l0.33,0.62l-0.56,0.37l1.85,3.51l-0.61,0.36l-0.88-1.61l-1.33,0.73l0.16,0.42
			c0.03,0.18-0.01,0.33-0.11,0.45c-0.11,0.13-0.3,0.21-0.51,0.21c-0.23,0-0.45-0.09-0.58-0.25c-0.19-0.23-0.32-0.57-0.31-0.77
			c0.01-0.16,0.09-0.29,0.25-0.38c0.16-0.09,0.12-0.21,0.04-0.38l-0.35-0.83c-0.05-0.12-0.11-0.14-0.16-0.14
			c-0.07,0-0.15,0.03-0.23,0.07l-1.42,0.6c-0.17,0.07-0.29,0.14-0.33,0.23c-0.02,0.06-0.02,0.14,0.02,0.24l0.32,0.77
			c0.77-0.12,1.27,0.03,1.49,0.43c0.37,0.68-0.19,1.88-0.54,2.43l-0.02,0.04l-0.47-0.29l0.04-0.08c0.18-0.36,0.67-1.32,0.37-1.66
			c-0.06-0.07-0.15-0.1-0.28-0.1c-0.36,0-0.98,0.34-1.41,0.98c-0.16,0.24-0.42,0.32-0.56,0.18c-0.07-0.06-0.09-0.17-0.09-0.29
			c0.01-0.15-0.01-0.2-0.17-0.24c-0.25-0.06-0.54,0.23-0.62,0.44c-0.11,0.25-0.12,0.47-0.04,0.66c0.1,0.23,0.32,0.42,0.67,0.56
			c0.04,0.02,0.09,0.03,0.14,0.04c0.06,0.01,0.13,0.03,0.19,0.06c0.18,0.1,0.23,0.25,0.2,0.37c-0.03,0.13-0.16,0.2-0.34,0.18
			c-0.78-0.09-1.8-0.35-1.69-1.55c0.08-0.83,0.73-1.43,1.55-1.43c0.15,0,0.29,0.02,0.44,0.06c0.19-0.12,0.41-0.29,0.37-0.51l-0.29-1
			l-3.23,0.99l0.94,3.72L51.48,81.07z M51.14,80.09c0.14,0,0.22,0.07,0.24,0.22l0.17,0.64l0.48-0.17l-0.93-3.72l3.4-1.04l0.31,1.1
			c0.03,0.15-0.02,0.38-0.43,0.61l-0.01,0.01l-0.02,0c-0.15-0.04-0.3-0.06-0.44-0.06c-0.77,0-1.39,0.57-1.46,1.35
			c-0.1,1.09,0.8,1.35,1.61,1.44c0.12,0.02,0.21-0.03,0.23-0.11c0.02-0.08-0.02-0.19-0.16-0.27c-0.05-0.02-0.1-0.04-0.16-0.05
			c-0.05-0.01-0.1-0.02-0.16-0.04c-0.37-0.16-0.61-0.37-0.72-0.62c-0.08-0.22-0.07-0.46,0.04-0.73c0.09-0.21,0.35-0.51,0.64-0.51
			c0.03,0,0.06,0,0.09,0.01c0.23,0.05,0.25,0.17,0.24,0.33c0,0.1,0.02,0.18,0.07,0.23c0.09,0.1,0.28,0.02,0.41-0.17
			c0.45-0.67,1.09-1.02,1.49-1.02c0.14,0,0.27,0.05,0.34,0.13c0.35,0.39-0.14,1.35-0.35,1.77l0,0l0.32,0.2
			c0.34-0.55,0.85-1.67,0.51-2.3c-0.2-0.37-0.69-0.5-1.42-0.38l-0.04,0.01l-0.35-0.84c-0.05-0.12-0.06-0.22-0.02-0.3
			c0.05-0.13,0.19-0.2,0.38-0.28l1.42-0.6c0.09-0.04,0.18-0.08,0.27-0.08c0.11,0,0.19,0.06,0.25,0.19l0.35,0.83
			c0.07,0.16,0.15,0.35-0.08,0.5c-0.13,0.08-0.19,0.18-0.21,0.31c-0.01,0.18,0.12,0.5,0.29,0.71c0.11,0.14,0.3,0.22,0.5,0.22
			c0.18,0,0.34-0.07,0.44-0.18c0.08-0.1,0.11-0.22,0.09-0.37l-0.18-0.48l1.48-0.82l0.88,1.61l0.45-0.26l-1.85-3.51l0.56-0.37
			l-0.24-0.45c-0.21,0.13-0.43,0.26-0.7,0.41c-3.79,2.11-7.6,3.4-11.66,3.93v0.59c1.21-0.21,2.99-0.52,3.08-0.55l0.01,0.04
			l0.05-0.01c0.06,0.33,0.11,0.63,0.13,0.9l0,0.04l-1.94,0.46c-0.52,0.12-0.8,0.46-0.75,0.92c0.05,0.5,0.3,1,0.75,0.97
			c0.69-0.04,1.4-0.17,2.11-0.37C51,80.11,51.07,80.09,51.14,80.09 M49.14,80.05c-0.25,0-0.4-0.08-0.47-0.24
			c-0.1-0.23-0.11-0.42-0.03-0.55c0.09-0.15,0.28-0.23,0.57-0.25h0.01l0.01,0c0.01,0.01,0.05,0.02,0.64,0.83l0.04,0.05l-0.06,0.02
			C49.7,79.97,49.41,80.05,49.14,80.05 M49.21,79.11c-0.25,0.02-0.42,0.09-0.48,0.2c-0.07,0.11-0.06,0.27,0.03,0.47
			c0.05,0.12,0.18,0.18,0.38,0.18c0.22,0,0.47-0.07,0.63-0.11C49.57,79.57,49.28,79.18,49.21,79.11 M50.18,79.85l-0.02-0.03
			c-0.1-0.14-0.2-0.28-0.3-0.43c-0.1-0.15-0.2-0.3-0.31-0.44l-0.04-0.07l0.08-0.01c0.46-0.05,0.83-0.12,1.16-0.2l0.01,0l0.01,0
			c0.14,0.01,0.25,0.09,0.32,0.23l0.01,0.01v0.01c-0.01,0.14,0.01,0.29,0.06,0.43c-0.01,0.09-0.04,0.16-0.09,0.24l-0.02,0.02
			L50.18,79.85z M49.67,78.96c0.09,0.13,0.17,0.25,0.26,0.38c0.1,0.13,0.19,0.27,0.28,0.4l0.77-0.21c0.03-0.04,0.05-0.1,0.06-0.16
			c-0.05-0.13-0.07-0.28-0.06-0.44c-0.05-0.1-0.12-0.16-0.23-0.17C50.45,78.85,50.1,78.91,49.67,78.96 M58.36,76.07l-0.02-0.04
			c-0.1-0.19-0.19-0.38-0.28-0.57c-0.09-0.19-0.18-0.38-0.28-0.56c-0.08-0.24-0.02-0.4,0.18-0.48c0.07-0.03,0.23-0.11,0.39-0.19
			c0.17-0.08,0.33-0.16,0.4-0.19c0.06-0.03,0.12-0.04,0.18-0.04c0.21,0,0.33,0.19,0.4,0.33c0.06,0.13,0.12,0.25,0.19,0.38
			c0.06,0.13,0.13,0.26,0.2,0.39c0.04,0.15-0.01,0.28-0.12,0.38c-0.15,0.07-0.38,0.18-0.61,0.29c-0.23,0.11-0.46,0.22-0.6,0.28
			L58.36,76.07z M58.94,74.09c-0.04,0-0.09,0.01-0.15,0.03c-0.07,0.03-0.23,0.11-0.39,0.19c-0.16,0.08-0.33,0.16-0.4,0.19
			c-0.16,0.07-0.2,0.17-0.14,0.36c0.1,0.18,0.19,0.37,0.28,0.56c0.09,0.17,0.17,0.35,0.26,0.52c0.14-0.07,0.34-0.17,0.55-0.27
			c0.23-0.11,0.46-0.22,0.6-0.29c0.08-0.07,0.11-0.17,0.09-0.27c-0.06-0.12-0.13-0.25-0.19-0.38c-0.06-0.12-0.12-0.25-0.19-0.38
			C59.16,74.17,59.06,74.09,58.94,74.09"/>
		<path class="st2" d="M35.53,77.32c0.2-0.01,0.45,0.03,0.65,0.11c-0.12,0.61-0.19,1.21-0.31,1.81c-0.07,0.52,0.12,0.9,0.59,1.14
			c0.29,0.15,0.72,0.15,1.04,0.16c0,0-0.05,0.73-0.06,0.99l0.59,0.03c0.13-0.99,0.25-2.48,0.38-3.47c0-0.04,0.02-0.08,0.02-0.12
			c0.01-0.28,0.05-0.26,0.23-0.24c0.42,0.04,0.89,0.07,1.3,0.09l0.18,0.11l-0.12,0.26c0.06,0.05,0.21,0.19,0.25,0.23
			c0.4,0.35,0.68,0.7,0.6,1.05c-0.05,0.26-0.31,0.46-0.57,0.48c-0.34,0.02-0.66-0.67-0.84-0.92c-0.19,0.11-0.36,0.21-0.54,0.32
			c0.51,1.02,1.14,2.01,2.21,2.86c0.15-0.08,0.28-0.22,0.4-0.37c-0.36-0.32-0.68-0.64-0.99-0.96c-0.21-0.22-0.05-0.33,0.17-0.42
			c0.25-0.11,0.45-0.25,0.61-0.42c0.41-0.45,0.38-0.76,0.11-1.25c-0.06-0.11-0.13-0.21-0.2-0.31c-0.1-0.14-0.21-0.27-0.33-0.4
			c-0.1-0.11-0.11-0.24,0.09-0.22c0.69,0.04,1.38,0.06,2.06,0.01c0.01,0.52,0.02,1.04,0.03,1.56c-0.28,0.08-0.46,0.2-0.46,0.49v0.61
			c0,0.21,0.15,0.46,0.39,0.45c0.11,0,0.21-0.01,0.32-0.01c0.25-0.01,0.42-0.29,0.42-0.51v-0.39c0.03-0.14,0.2-0.11,0.31-0.12
			c0.29-0.01,0.62-0.01,0.9-0.02l0.16,1.8l0.62,0.04c-0.09-1.25-0.18-2.57-0.25-3.83c0-0.09,0.07-0.16,0.18-0.19l0.55,0.01
			l-0.03-0.6c-0.47,0.04-0.92,0.08-1.39,0.12c-2.49,0.25-4.9,0.18-7.06-0.19c-0.73-0.12-1.45-0.28-2.18-0.37L35.53,77.32z
			 M43.7,78.14c0.02-0.22,0.12-0.33,0.32-0.33c0.15,0,0.31,0,0.47,0c0.29,0,0.36,0.21,0.37,0.45c0.01,0.29,0.02,0.58,0.04,0.86
			c-0.02,0.12-0.09,0.21-0.24,0.26c-0.3,0.01-0.61,0.02-0.91,0.02C43.72,78.99,43.73,78.56,43.7,78.14 M37.7,77.61
			c0.15,0.05,0.21,0.18,0.16,0.41c-0.09,0.63-0.18,1.27-0.27,1.9c-0.59,0.05-1.14-0.09-1.02-0.75c0.09-0.46,0.17-0.92,0.26-1.38
			C36.91,77.37,37.38,77.59,37.7,77.61"/>
		<path class="st7" d="M41.12,82.27l-0.02-0.02c-1.16-0.91-1.77-1.96-2.23-2.87l-0.02-0.04l0.61-0.37L39.48,79
			c0.04,0.06,0.09,0.13,0.13,0.21c0.17,0.28,0.42,0.69,0.66,0.69c0.26-0.01,0.49-0.21,0.54-0.44c0.06-0.29-0.12-0.6-0.59-1.01
			c-0.02-0.01-0.05-0.04-0.08-0.07c-0.06-0.05-0.14-0.12-0.18-0.15l-0.03-0.02l0.12-0.26l-0.13-0.08c-0.46-0.02-0.92-0.05-1.3-0.09
			c-0.05-0.01-0.08-0.01-0.1-0.01c-0.05,0-0.07,0-0.08,0.21c0,0.03-0.01,0.06-0.01,0.09l0,0.04c-0.07,0.5-0.13,1.12-0.19,1.73
			c-0.06,0.61-0.13,1.24-0.19,1.74l0,0.04l-0.68-0.04l0.06-0.99l-0.06,0c-0.3-0.01-0.68-0.02-0.95-0.16
			c-0.48-0.26-0.68-0.64-0.61-1.19c0.06-0.3,0.11-0.61,0.16-0.91c0.05-0.29,0.09-0.58,0.15-0.87c-0.19-0.07-0.41-0.1-0.6-0.09
			l-0.05,0l0.02-0.69l0.05,0.01c0.5,0.06,1,0.15,1.48,0.25c0.24,0.04,0.47,0.08,0.7,0.12c2.17,0.37,4.6,0.44,7.04,0.19
			c0.31-0.03,0.61-0.06,0.91-0.08c0.16-0.01,0.32-0.03,0.48-0.04l0.05-0.01l0.04,0.7l-0.6,0c-0.04,0.01-0.14,0.05-0.13,0.14
			c0.08,1.36,0.17,2.76,0.25,3.83l0,0.05l-0.71-0.04L44.9,80l-0.86,0.02h-0.09c-0.12,0-0.17,0.02-0.18,0.08l0,0.19l0,0.2
			c0,0.23-0.18,0.55-0.46,0.56l-0.31,0.01c-0.27,0-0.44-0.26-0.44-0.5v-0.61c0-0.34,0.24-0.46,0.46-0.53l-0.03-1.48
			c-0.58,0.04-1.18,0.04-2.02-0.01l-0.03,0c-0.04,0-0.08,0.01-0.08,0.03c-0.01,0.02,0.01,0.06,0.06,0.12
			c0.13,0.15,0.24,0.27,0.33,0.4c0.08,0.1,0.14,0.21,0.2,0.31c0.27,0.49,0.33,0.82-0.11,1.3c-0.16,0.18-0.37,0.32-0.62,0.43
			c-0.1,0.05-0.22,0.11-0.23,0.18c-0.01,0.05,0.02,0.1,0.08,0.17c0.27,0.28,0.6,0.62,0.98,0.96l0.04,0.03l-0.03,0.03
			c-0.11,0.14-0.24,0.29-0.41,0.38L41.12,82.27z M38.97,79.37c0.44,0.88,1.05,1.9,2.16,2.79c0.13-0.08,0.24-0.2,0.33-0.31
			c-0.37-0.33-0.69-0.66-0.96-0.93c-0.09-0.09-0.12-0.17-0.11-0.25c0.02-0.12,0.15-0.19,0.29-0.25c0.24-0.1,0.44-0.24,0.59-0.4
			c0.4-0.44,0.35-0.74,0.1-1.19c-0.06-0.11-0.12-0.2-0.2-0.3c-0.09-0.12-0.2-0.25-0.33-0.4c-0.07-0.08-0.1-0.16-0.07-0.22
			c0.02-0.04,0.06-0.08,0.17-0.08h0.03c0.86,0.05,1.47,0.06,2.06,0.01l0.05,0l0.02,1.65l-0.03,0.01c-0.3,0.08-0.42,0.21-0.42,0.44
			v0.61c0,0.17,0.12,0.41,0.33,0.41l0.32-0.01c0.23-0.01,0.37-0.28,0.37-0.46v-0.39c0.03-0.16,0.2-0.16,0.27-0.16h0.07l0.97-0.02
			l0.16,1.81l0.53,0.03c-0.07-1.06-0.17-2.44-0.24-3.78c-0.01-0.11,0.07-0.2,0.21-0.24l0.51,0l-0.03-0.5
			c-0.15,0.01-0.29,0.02-0.43,0.03c-0.3,0.03-0.61,0.05-0.91,0.08c-2.45,0.25-4.89,0.18-7.06-0.19c-0.24-0.04-0.47-0.08-0.71-0.13
			c-0.46-0.09-0.95-0.17-1.43-0.24l-0.01,0.48c0.2-0.01,0.44,0.04,0.62,0.11l0.03,0.01l-0.01,0.04c-0.06,0.3-0.11,0.61-0.15,0.91
			c-0.05,0.3-0.1,0.61-0.16,0.91c-0.07,0.51,0.11,0.86,0.56,1.09c0.25,0.13,0.62,0.14,0.91,0.15l0.16,0l-0.06,0.99l0.5,0.02
			c0.06-0.49,0.12-1.1,0.18-1.69c0.06-0.61,0.13-1.24,0.19-1.73l0.01-0.04c0-0.02,0.01-0.05,0.01-0.07c0-0.17,0.02-0.3,0.17-0.3
			c0.02,0,0.05,0,0.09,0.01c0.4,0.04,0.86,0.07,1.32,0.09l0.02,0.01l0.21,0.14l-0.12,0.26c0.04,0.04,0.1,0.09,0.15,0.14
			c0.03,0.03,0.06,0.05,0.07,0.07c0.34,0.29,0.71,0.68,0.62,1.1c-0.06,0.27-0.33,0.5-0.62,0.52h0c-0.31,0-0.57-0.43-0.76-0.74
			c-0.04-0.07-0.07-0.12-0.1-0.17L38.97,79.37z M37.39,79.97c-0.36,0-0.62-0.08-0.76-0.25c-0.11-0.14-0.15-0.33-0.1-0.56l0.26-1.38
			c0.04-0.2,0.16-0.29,0.37-0.29c0.1,0,0.21,0.02,0.31,0.04c0.08,0.01,0.17,0.03,0.24,0.03c0.14,0.04,0.27,0.16,0.2,0.47l-0.27,1.94
			l-0.04,0C37.53,79.97,37.46,79.97,37.39,79.97 M37.15,77.58c-0.17,0-0.25,0.06-0.28,0.22l-0.26,1.38
			c-0.04,0.2-0.01,0.36,0.09,0.48c0.12,0.15,0.36,0.22,0.69,0.22c0.05,0,0.1,0,0.16-0.01l0.26-1.87c0.06-0.26-0.04-0.33-0.12-0.36
			c-0.07,0-0.15-0.02-0.24-0.03C37.35,77.6,37.25,77.58,37.15,77.58 M43.71,79.46l0-0.05c-0.01-0.21-0.02-0.43-0.02-0.64
			c0-0.21-0.01-0.43-0.02-0.64c0.03-0.26,0.14-0.38,0.37-0.38h0.47c0.35,0,0.41,0.28,0.42,0.5c0.01,0.14,0.01,0.28,0.02,0.43
			c0.01,0.15,0.01,0.29,0.02,0.44c-0.03,0.15-0.12,0.26-0.27,0.31L43.71,79.46z M44.5,77.86h-0.47c-0.18,0-0.26,0.08-0.28,0.28
			c0.02,0.21,0.02,0.42,0.03,0.63c0,0.2,0.01,0.39,0.02,0.59l0.87-0.02c0.1-0.04,0.17-0.11,0.19-0.22
			c-0.01-0.14-0.01-0.28-0.02-0.42c0-0.14-0.01-0.29-0.01-0.44C44.81,77.98,44.71,77.86,44.5,77.86"/>
		<path class="st2" d="M44.71,76.08c0.16,0,0.31-0.01,0.47-0.02v0.26c0,0.06,0.01,0.11,0.02,0.17c0.01,0.09,0,0.27-0.11,0.27
			c-0.07,0-0.15,0-0.22,0.01c-0.13,0-0.18-0.02-0.19-0.16C44.67,76.44,44.63,76.09,44.71,76.08"/>
		<path class="st7" d="M44.86,76.8c-0.12,0-0.19-0.03-0.2-0.18l-0.01-0.07c-0.01-0.22-0.03-0.41,0.02-0.47
			c0.01-0.01,0.02-0.02,0.04-0.02l0.49-0.02v0.29c0,0.04,0.01,0.07,0.01,0.1c0,0.02,0.01,0.04,0.01,0.06
			c0.01,0.07,0.01,0.2-0.05,0.26c-0.02,0.03-0.05,0.04-0.09,0.04L44.86,76.8z M45.16,76.09l-0.44,0.01
			c-0.04,0.05-0.02,0.3-0.01,0.43l0,0.07c0.01,0.12,0.04,0.14,0.15,0.14v0.03l0.01-0.03l0.22,0c0.02,0,0.04-0.01,0.05-0.02
			c0.04-0.05,0.05-0.15,0.04-0.22c0-0.02-0.01-0.04-0.01-0.06c0-0.04-0.01-0.07-0.01-0.11V76.09z"/>
		<path class="st2" d="M63.35,77.68l0-0.04c-0.4-0.13-0.8-0.27-1.2-0.4c-0.18-0.06-0.42-0.21-0.47,0.09
			c-0.01,0.09-0.03,0.18-0.05,0.27C62.2,77.63,62.77,77.65,63.35,77.68"/>
		<path class="st7" d="M63.38,77.72l-1.81-0.08l0.06-0.33c0.02-0.15,0.09-0.22,0.21-0.22c0.07,0,0.16,0.03,0.24,0.06
			c0.03,0.01,0.06,0.02,0.08,0.03l1.23,0.41L63.38,77.72z M61.69,77.56l1.45,0.06l-1-0.33c-0.03-0.01-0.06-0.02-0.09-0.03
			c-0.07-0.03-0.14-0.06-0.2-0.06c-0.05,0-0.1,0.02-0.12,0.14L61.69,77.56z"/>
		<path class="st2" d="M34.11,75.1c-0.14-0.03-0.29-0.05-0.44-0.07c-0.01,0.08-0.03,0.17-0.04,0.25c-0.01,0.06-0.03,0.1-0.04,0.16
			c-0.02,0.08-0.04,0.26,0.07,0.28c0.07,0.01,0.14,0.02,0.21,0.03c0.12,0.02,0.17,0,0.2-0.13C34.11,75.44,34.19,75.11,34.11,75.1"/>
		<path class="st7" d="M33.94,75.78c-0.02,0-0.05,0-0.08-0.01l-0.21-0.03c-0.03,0-0.06-0.02-0.08-0.05c-0.05-0.07-0.03-0.19,0-0.26
			c0-0.02,0.01-0.04,0.02-0.05c0.01-0.03,0.02-0.06,0.02-0.1L33.66,75l0.47,0.08l0.02,0.02c0.04,0.06,0.01,0.23-0.05,0.45
			l-0.01,0.07C34.07,75.73,34.02,75.78,33.94,75.78 M33.7,75.05l-0.03,0.23c-0.01,0.04-0.02,0.07-0.03,0.1
			c-0.01,0.02-0.01,0.04-0.02,0.05c-0.02,0.06-0.03,0.17,0,0.22c0.01,0.02,0.02,0.02,0.04,0.03l0.21,0.03
			c0.1,0.01,0.14,0.02,0.17-0.11l0.02-0.06c0.03-0.13,0.08-0.37,0.05-0.42L33.7,75.05z"/>
		<path class="st2" d="M3.51,40.52c0.49,0.03,0.98,0.06,1.47,0.09c0.21-0.25,0-0.52-0.28-0.54c-0.37-0.03-0.74-0.05-1.1-0.07
			c-0.09-0.02-0.16-0.01-0.22,0.04C3.21,40.16,3.29,40.5,3.51,40.52 M2.52,41.11c0.01-0.43,0.03-0.87,0.04-1.3
			c0.01-0.42,0.41-0.49,0.75-0.48c0.67,0.03,1.37,0.08,1.96,0.24c0.49-0.51,3.16-0.16,3.36,0.29c-0.01,0.49-0.03,0.98-0.04,1.48
			C6.56,41.27,4.54,41.19,2.52,41.11 M6.05,40.64c0.6,0.03,1.2,0.07,1.79,0.11c0.25-0.31,0.01-0.63-0.34-0.65
			c-0.45-0.03-0.9-0.06-1.34-0.09C6.06,39.98,5.97,40,5.9,40.05C5.68,40.21,5.77,40.62,6.05,40.64"/>
		<path class="st7" d="M3.16,37.72c1.79,0.18,3.58,0.4,5.37,0.64c0.3,0.05,0.3,0.02,0.27,0.35c-0.05,0.33-0.55,0.18-0.82,0.16
			c-1.71-0.23-3.42-0.44-5.13-0.59c-0.21-0.02-0.16-0.02-0.14-0.23C2.73,37.73,2.71,37.67,3.16,37.72"/>
		<path class="st2" d="M3.72,33.34c1.7,0.38,3.4,0.76,5.11,1.14c0.07-0.19,0.14-0.38,0.2-0.58c0.11-0.32,0.71-0.15,0.63,0.19
			c-0.04,0.19-0.09,0.41-0.13,0.6c-0.13,0.6-0.3,0.55-0.85,0.44c-1.77-0.33-3.48-0.74-5.15-1.19c-0.11-0.03-0.11-0.02-0.08-0.13
			c0.04-0.13,0.07-0.26,0.11-0.39C3.59,33.29,3.58,33.31,3.72,33.34"/>
		<path class="st2" d="M3.35,36.98c1.76,0.26,3.52,0.52,5.27,0.78c0.35,0.05,0.42-0.54,0.14-0.58c-0.56-0.09-1.12-0.18-1.69-0.27
			c-0.38-0.06-0.2-0.4,0.09-0.4c0.62-0.01,1.25-0.01,1.87-0.02c0.06-0.17,0.12-0.34,0.18-0.52c-0.78,0-1.56,0.01-2.34,0.01
			c-0.14-0.23-0.37-0.53-0.66-0.58C5.49,35.27,4.77,35.13,4.05,35c-0.35-0.06-0.87,0.07-0.94,0.48C3.06,35.82,3,36.16,2.95,36.5
			C2.92,36.78,3.09,36.94,3.35,36.98 M4,36.38c-0.39-0.05-0.26-0.67,0.11-0.61c0.61,0.08,1.22,0.17,1.83,0.26
			c0.41,0.06,0.34,0.66-0.11,0.6C5.23,36.55,4.61,36.47,4,36.38"/>
		<path class="st2" d="M5.99,29.6c1.51,0.54,3.02,1.09,4.54,1.63c-0.06,0.19-0.11,0.38-0.17,0.58c-0.48-0.17-0.97-0.35-1.45-0.52
			c-0.16-0.06-0.4-0.09-0.45,0.14c-0.02,0.1-0.04,0.2-0.06,0.31c-0.03,0.16-0.02,0.23,0.14,0.32c0.43,0.12,0.86,0.24,1.29,0.36
			c0.2,0.06,0.29,0.22,0.22,0.42c-0.03,0.1-0.07,0.2-0.1,0.3c-1.59-0.48-3.19-0.96-4.78-1.43c-0.53-0.16-0.71-0.66-0.59-1.17
			c0.09-0.4,0.23-0.93,0.63-1.01C5.44,29.49,5.77,29.52,5.99,29.6 M5.5,31.16c0.68,0.19,1.35,0.38,2.03,0.57
			c0.04-0.11,0.09-0.22,0.14-0.32c0.02-0.04,0.04-0.08,0.05-0.12c0.13-0.29-0.13-0.38-0.38-0.46l-1.51-0.6
			C5.08,29.98,4.95,30.93,5.5,31.16"/>
		
			<rect x="20.77" y="34.05" transform="matrix(0.4319 -0.9019 0.9019 0.4319 -16.9575 41.8079)" class="st7" width="7.89" height="0.63"/>
		<path class="st7" d="M38.17,62.99l-8.47-3.44l-1.44-5.02l-3.78-0.55l-2.58-6.93L25.96,43l1.28-2.55l-3.8-1.92l0.29-0.57l4.36,2.21
			l-1.61,3.2l-3.84,3.84l2.31,6.19l3.13,0.46l-0.71-2.46l2.76-3.74l1.69-5.27l-2.14-6.27L26.5,31.7l0.51-0.37l3.23,4.49l2.24,6.56
			l-1.79,5.57l-2.63,3.58l0.7,2.44l6.89,1.01L38.17,62.99z M30.23,59.08l6.94,2.82l-2-6.35l-6.22-0.91L30.23,59.08z"/>
		<path class="st2" d="M26.31,29.61c0.8,0,1.45,0.64,1.45,1.42c0,0.78-0.65,1.42-1.45,1.42c-0.8,0-1.46-0.64-1.46-1.42
			C24.85,30.25,25.5,29.61,26.31,29.61"/>
		<path class="st2" d="M35.36,53.71c0.8,0,1.46,0.63,1.46,1.42c0,0.79-0.65,1.42-1.46,1.42c-0.8,0-1.45-0.63-1.45-1.42
			C33.91,54.34,34.56,53.71,35.36,53.71"/>
		
			<rect x="26.02" y="38.12" transform="matrix(0.4733 -0.8809 0.8809 0.4733 -18.7477 45.5104)" class="st7" width="5.34" height="0.63"/>
		<polygon class="st7" points="32.15,42.73 27.32,40.47 27.59,39.9 32.42,42.15 		"/>
		
			<rect x="27.96" y="42.98" transform="matrix(0.7589 -0.6512 0.6512 0.7589 -22.7732 29.3651)" class="st7" width="0.63" height="4.92"/>
		
			<rect x="24.82" y="46.36" transform="matrix(0.6438 -0.7652 0.7652 0.6438 -28.7931 36.8035)" class="st7" width="0.63" height="5.94"/>
		<polygon class="st7" points="29.22,59.17 24.9,54.41 25.37,53.98 29.69,58.75 		"/>
		<path class="st2" d="M22.85,36.68c0.76,0,1.38,0.61,1.38,1.35c0,0.74-0.62,1.34-1.38,1.34c-0.76,0-1.38-0.6-1.38-1.34
			C21.47,37.29,22.09,36.68,22.85,36.68"/>
		<path class="st1" d="M24.81,52.57c0.64,0,1.15,0.5,1.15,1.13c0,0.62-0.52,1.13-1.15,1.13c-0.64,0-1.15-0.5-1.15-1.13
			C23.66,53.07,24.17,52.57,24.81,52.57"/>
		<path class="st1" d="M27.7,50.35c0.64,0,1.15,0.5,1.15,1.13c0,0.62-0.52,1.13-1.15,1.13c-0.64,0-1.16-0.51-1.16-1.13
			C26.55,50.86,27.06,50.35,27.7,50.35"/>
		<path class="st1" d="M30.02,58.18c0.63,0,1.16,0.5,1.16,1.13c0,0.62-0.52,1.13-1.16,1.13c-0.64,0-1.15-0.51-1.15-1.13
			C28.86,58.69,29.38,58.18,30.02,58.18"/>
		<path class="st1" d="M30.33,46.58c0.64,0,1.15,0.51,1.15,1.13c0,0.62-0.52,1.13-1.15,1.13c-0.64,0-1.16-0.5-1.16-1.13
			C29.17,47.08,29.69,46.58,30.33,46.58"/>
		<path class="st1" d="M26.28,41.94c0.64,0,1.16,0.5,1.16,1.13c0,0.62-0.52,1.13-1.16,1.13c-0.64,0-1.15-0.51-1.15-1.13
			C25.12,42.44,25.64,41.94,26.28,41.94"/>
		<path class="st1" d="M22.32,45.93c0.64,0,1.16,0.51,1.16,1.13c0,0.62-0.52,1.13-1.16,1.13c-0.64,0-1.16-0.5-1.16-1.13
			C21.16,46.43,21.68,45.93,22.32,45.93"/>
		<path class="st1" d="M29.93,34.87c0.64,0,1.16,0.5,1.16,1.13c0,0.62-0.52,1.12-1.16,1.12c-0.64,0-1.15-0.5-1.15-1.12
			C28.77,35.37,29.29,34.87,29.93,34.87"/>
		<path class="st1" d="M32.2,41.16c0.64,0,1.15,0.5,1.15,1.12c0,0.62-0.51,1.13-1.15,1.13c-0.64,0-1.16-0.51-1.16-1.13
			C31.04,41.66,31.56,41.16,32.2,41.16"/>
		<path class="st2" d="M37.7,61.16c0.76,0,1.38,0.6,1.38,1.34c0,0.74-0.62,1.34-1.38,1.34c-0.77,0-1.38-0.6-1.38-1.34
			C36.32,61.77,36.93,61.16,37.7,61.16"/>
		<path class="st1" d="M44.77,63.7c2.14-1.61,3.83-3.59,4.9-6.07c0.14-0.27,0.22-0.37,0.5-0.27c0.28,0.1,0.56,0.21,0.84,0.31
			c0.17,0.06,0.22,0.16,0.17,0.35c-0.85,1.93-1.99,3.52-3.3,4.91c-0.07-0.12-0.15-0.23-0.23-0.35c-0.2,0.24-0.41,0.47-0.62,0.71
			c-0.24,0.2-0.31,0.04-0.3-0.3c-0.25,0.27-0.52,0.55-0.77,0.81c-0.15,0.16-0.16-0.15-0.18-0.28c-0.27,0.13-0.55,0.26-0.83,0.38
			C44.71,64.03,44.58,63.85,44.77,63.7"/>
		<path class="st1" d="M49.57,62.48c0.3-0.22,0.59-0.44,0.9-0.58c-0.05,0.12-0.1,0.24-0.16,0.36c-0.08,0.19,0.01,0.3,0.21,0.14
			c0.21-0.18,0.41-0.37,0.62-0.55c0,0.07-0.01,0.15-0.02,0.22c-0.02,0.2,0.05,0.29,0.25,0.13c0.83-0.64,1.6-1.69,2.3-3.24
			c0.09-0.21,0.16-0.35-0.06-0.44c-0.22-0.09-0.43-0.18-0.66-0.28c-0.24-0.1-0.43-0.04-0.58,0.18c-0.8,1.32-1.82,2.63-2.92,3.95
			C49.37,62.48,49.39,62.59,49.57,62.48"/>
		<path class="st1" d="M51.67,57.25c0.11-0.35,0.22-0.7,0.33-1.05c0.1-0.29,1.02-0.13,0.96,0.23c-0.06,0.24-0.12,0.47-0.19,0.71
			c-0.04,0.17-0.08,0.49,0.14,0.55c0.29,0.08,0.57,0.15,0.86,0.23c0.21,0.01,0.32-0.11,0.37-0.29c0.3-1.01,0.6-2.01,0.91-3.02
			c0.07-0.23,0.13-0.41,0.13-0.65c-0.01-0.95,0.06-1.8,0.17-2.59c1.04-3.26,2.09-6.53,3.13-9.79c0.38-0.72,0.77-1.43,1.15-2.15
			c0.16-0.27,0.1-0.46,0.05-0.75c-0.2-1.32-0.18-2.49,0.04-3.51c0.4-1.3,0.8-2.61,1.19-3.91c0.09-0.37-0.44-0.5-0.53-0.06
			c-0.65,2.87-1.83,5.15-3.66,6.72c-0.14,0.12-0.21,0.24-0.15,0.5c0.1,0.56,0.19,1.11,0.01,1.7c-1.09,3.38-2.18,6.77-3.27,10.15
			c-0.46,0.71-0.95,1.42-1.53,2.14c-0.21,0.27-0.42,0.56-0.55,0.94c-0.31,0.99-0.62,1.97-0.93,2.96c0,0.02-0.01,0.05-0.02,0.08
			c-0.06,0.21-0.02,0.36,0.2,0.44C50.89,56.96,51.28,57.11,51.67,57.25"/>
		<path class="st8" d="M53.27,42.1c-0.57,0-1.14-0.03-1.7-0.09l0.07-0.66c2.63,0.27,5.39-0.13,7.79-1.13l0.26,0.61
			C57.7,41.67,55.47,42.1,53.27,42.1"/>
		<path class="st8" d="M50.38,49.39l-0.58-0.32c1.48-2.7,2.39-5.58,2.62-8.31l0.66,0.06C52.84,43.64,51.91,46.61,50.38,49.39"/>
		<path class="st8" d="M64.32,46.33c-2.77-1.5-4.91-3.54-6.56-6.25l0.57-0.34c1.59,2.61,3.65,4.57,6.31,6.01L64.32,46.33z"/>
		<path class="st8" d="M53.72,53.89c-0.73-2.37-2.1-4.34-4.17-6.03l0.42-0.51c2.17,1.78,3.61,3.85,4.38,6.35L53.72,53.89z"/>
		<path class="st8" d="M59.34,51.68l-0.66-0.06c0.25-2.86,0.57-4.32,1.44-6.49l0.62,0.25C59.89,47.48,59.58,48.89,59.34,51.68"/>
		<path class="st8" d="M53.28,53.64L52.9,53.1c2.28-1.58,4.69-2.57,7.18-2.94l0.1,0.65C57.79,51.17,55.47,52.12,53.28,53.64"/>
		<path class="st8" d="M60.66,46.96c-1.64-1.04-2.97-2.48-3.93-4.27l0.54-0.29c0.92,1.69,2.17,3.05,3.72,4.04L60.66,46.96z"/>
		<path class="st8" d="M53.71,44.42l-0.14-0.65c1.67-0.35,3.2-0.73,4.67-1.16l0.19,0.64C56.94,43.68,55.39,44.06,53.71,44.42"/>
		<path class="st8" d="M52.97,48.73l-0.61-0.27c0.75-1.7,1.38-3.48,1.9-5.45l0.64,0.17C54.37,45.18,53.74,47,52.97,48.73"/>
		<path class="st8" d="M56.89,50.13l-0.63-0.19c0.46-1.57,0.97-2.78,1.55-3.69l0.56,0.36C57.82,47.47,57.33,48.62,56.89,50.13"/>
		<path class="st8" d="M54.47,50.61c-0.71-1.13-1.46-2.18-2.26-3.15l0.51-0.43c0.81,0.99,1.59,2.07,2.31,3.22L54.47,50.61z"/>
		<path class="st8" d="M53.43,50.29l-0.28-0.6c1.2-0.57,2.67-1.1,4.48-0.74l-0.13,0.65C55.88,49.28,54.54,49.77,53.43,50.29"/>
		<path class="st8" d="M57.86,47.9c-1.01-0.91-1.81-1.84-2.37-2.76l0.57-0.35c0.53,0.87,1.28,1.74,2.25,2.61L57.86,47.9z"/>
		<path class="st8" d="M54.61,46.49l-0.1-0.66c1.12-0.17,2.05-0.36,2.92-0.61l0.18,0.64C56.71,46.11,55.76,46.31,54.61,46.49"/>
	</g>
	<g>
		<g>
			<path class="st9" d="M93.27,9.4h10.2c5.14,0,6.46,3.22,6.46,5.38c0,3.01-1.7,3.86-2.57,4.3c2.57,0.96,3.24,3.01,3.24,5.09
				c0,1.67-0.7,3.24-1.81,4.33c-1.2,1.17-2.34,1.9-6.64,1.9h-8.89V9.4z M97.48,17.61h5.14c1.72,0,3.1-0.67,3.1-2.34
				c0-1.72-1.23-2.25-3.21-2.25h-5.03V17.61z M97.48,26.76h5.38c2.13,0,3.36-0.94,3.36-3.07c0-1.84-1.58-2.54-3.16-2.54h-5.58V26.76
				z"/>
			<path class="st9" d="M116.95,30.39h-4.38V9.4h4.38V30.39z"/>
			<path class="st9" d="M128.49,30.39h-4.38V13.11h-6.34V9.4h17.07v3.71h-6.34V30.39z"/>
			<path class="st9" d="M139.1,23.93c0.03,1.17,0.61,3.39,4.44,3.39c2.08,0,4.38-0.5,4.38-2.72c0-1.64-1.58-2.08-3.8-2.6l-2.25-0.53
				c-3.39-0.79-6.66-1.55-6.66-6.17c0-2.34,1.26-6.46,8.07-6.46c6.43,0,8.16,4.21,8.18,6.78h-4.21c-0.12-0.94-0.47-3.16-4.3-3.16
				c-1.67,0-3.65,0.61-3.65,2.51c0,1.64,1.34,1.99,2.22,2.19l5.11,1.26c2.86,0.7,5.5,1.87,5.5,5.64c0,6.31-6.43,6.87-8.27,6.87
				c-7.66,0-8.97-4.41-8.97-7.02H139.1z"/>
		</g>
		<g>
			<path class="st9" d="M164.05,30.51h-2.84V9.52h9.44c3.89,0,6.23,2.51,6.23,5.9c0,2.92-1.67,6.23-6.23,6.23h-6.61V30.51z
				 M164.05,19.22h5.64c2.54,0,4.27-0.94,4.27-3.77c0-2.66-1.81-3.51-4.15-3.51h-5.76V19.22z"/>
			<path class="st9" d="M178.72,12.44V9.52h2.57v2.92H178.72z M181.29,30.51h-2.57V15.22h2.57V30.51z"/>
			<path class="st9" d="M186.35,30.51h-2.57V9.52h2.57V30.51z"/>
			<path class="st9" d="M188.68,19.87c0.12-3.65,2.54-5.09,6.31-5.09c1.23,0,5.67,0.35,5.67,4.27v8.8c0,0.64,0.32,0.91,0.85,0.91
				c0.23,0,0.55-0.06,0.85-0.12v1.87c-0.44,0.12-0.82,0.29-1.4,0.29c-2.28,0-2.63-1.17-2.72-2.34c-0.99,1.08-2.54,2.48-5.52,2.48
				c-2.81,0-4.79-1.78-4.79-4.41c0-1.29,0.38-4.27,4.65-4.79l4.24-0.53c0.61-0.06,1.34-0.29,1.34-1.81c0-1.61-1.17-2.48-3.59-2.48
				c-2.92,0-3.33,1.78-3.51,2.95H188.68z M198.1,22.7c-0.41,0.32-1.05,0.56-4.24,0.96c-1.26,0.18-3.27,0.56-3.27,2.48
				c0,1.67,0.85,2.66,2.78,2.66c2.4,0,4.74-1.55,4.74-3.6V22.7z"/>
			<path class="st9" d="M216.04,30.51h-2.57v-9.41c0-2.66-0.76-4-3.27-4c-1.46,0-4.03,0.94-4.03,5.09v8.33h-2.57V15.22h2.43v2.16
				h0.06c0.55-0.82,1.99-2.6,4.62-2.6c2.37,0,5.35,0.96,5.35,5.32V30.51z"/>
			<path class="st9" d="M218.47,12.44V9.52h2.57v2.92H218.47z M221.04,30.51h-2.57V15.22h2.57V30.51z"/>
		</g>
		<g>
			<path class="st10" d="M98.69,72.63c-0.03,0.05-0.03,0.06-0.09,0.06h-5.01c-0.06,0-0.09-0.03-0.08-0.1l1.45-8.33
				c0.01-0.04,0.03-0.06,0.1-0.06h4.62c0.08,0,0.09,0.04,0.09,0.08l0.01,1.2c0,0.05-0.03,0.09-0.09,0.09h-3.48l-0.36,2.14h3.17
				c0.05,0,0.06,0.01,0.05,0.08l-0.21,1.2c-0.01,0.05-0.03,0.09-0.1,0.09h-3.16l-0.39,2.26h3.8c0.08,0,0.08,0.04,0.05,0.1
				L98.69,72.63z"/>
			<path class="st10" d="M101.06,66.41c-0.03-0.05,0-0.09,0.05-0.09h1.41c0.05,0,0.07,0.01,0.08,0.05c0.3,0.74,0.58,1.47,0.88,2.2
				h0.01c0.52-0.72,1.04-1.45,1.57-2.19c0.04-0.04,0.06-0.06,0.12-0.06h1.36c0.06,0,0.08,0.06,0.04,0.09l-2.34,3.08l1.41,3.09
				c0.03,0.08,0.01,0.12-0.04,0.12h-1.38c-0.06,0-0.1-0.03-0.13-0.09l-0.93-2.26h-0.01c-0.41,0.62-1.14,1.59-1.64,2.28
				c-0.03,0.04-0.04,0.07-0.12,0.08h-1.41c-0.06,0-0.08-0.05-0.04-0.1l2.46-3.16L101.06,66.41z"/>
			<path class="st10" d="M110.99,72.51c-0.01,0.05-0.03,0.09-0.09,0.12c-0.35,0.14-0.67,0.19-1.16,0.19c-1.55,0-2.76-0.96-2.76-2.82
				c0-2.15,1.63-3.82,3.73-3.82c0.56,0,0.88,0.05,1.11,0.16c0.06,0.03,0.06,0.05,0.05,0.1l-0.23,1.11
				c-0.01,0.05-0.04,0.05-0.09,0.04c-0.26-0.09-0.46-0.12-0.83-0.12c-1.35,0-2.21,1.09-2.21,2.41c0,0.94,0.5,1.63,1.63,1.63
				c0.38,0,0.65-0.04,1.02-0.17c0.06-0.03,0.08,0.01,0.06,0.06L110.99,72.51z"/>
			<path class="st10" d="M117.1,72.31c-0.01,0.08-0.05,0.1-0.12,0.13c-0.45,0.26-0.89,0.39-1.75,0.39c-1.53,0-2.59-0.88-2.59-2.72
				c0-2.02,1.41-3.92,3.44-3.92c1.49,0,1.97,0.84,1.98,1.7c0.01,1.44-1.2,2.28-3.99,2.24c0,0.05-0.01,0.16-0.01,0.21
				c0.03,0.5,0.31,1.19,1.49,1.19c0.53,0,1.09-0.1,1.66-0.44c0.04-0.01,0.07,0.01,0.07,0.06L117.1,72.31z M116.74,67.97
				c0-0.25-0.12-0.61-0.76-0.61c-0.75,0-1.54,0.69-1.77,1.63C116.34,69.05,116.74,68.42,116.74,67.97z"/>
			<path class="st10" d="M121.23,72.55c-0.01,0.08-0.04,0.1-0.1,0.13c-0.21,0.09-0.5,0.14-0.84,0.14c-0.84,0-1.36-0.38-1.14-1.64
				l1.33-7.58c0.01-0.05,0.03-0.08,0.09-0.09c0.39-0.03,1.22-0.08,1.32-0.09c0.06,0,0.08,0.03,0.08,0.09l-1.33,7.58
				c-0.08,0.43,0.09,0.5,0.32,0.5c0.1,0,0.27-0.03,0.4-0.06c0.05-0.01,0.06,0.03,0.06,0.06L121.23,72.55z"/>
			<path class="st10" d="M125.06,72.55c-0.01,0.08-0.04,0.1-0.1,0.13c-0.21,0.09-0.5,0.14-0.84,0.14c-0.84,0-1.36-0.38-1.14-1.64
				l1.33-7.58c0.01-0.05,0.03-0.08,0.09-0.09c0.39-0.03,1.22-0.08,1.32-0.09c0.06,0,0.08,0.03,0.08,0.09l-1.33,7.58
				c-0.08,0.43,0.09,0.5,0.32,0.5c0.1,0,0.27-0.03,0.4-0.06c0.05-0.01,0.06,0.03,0.06,0.06L125.06,72.55z"/>
			<path class="st10" d="M131.16,72.31c-0.01,0.08-0.05,0.1-0.12,0.13c-0.45,0.26-0.89,0.39-1.75,0.39c-1.53,0-2.59-0.88-2.59-2.72
				c0-2.02,1.41-3.92,3.44-3.92c1.49,0,1.97,0.84,1.98,1.7c0.01,1.44-1.2,2.28-3.99,2.24c0,0.05-0.01,0.16-0.01,0.21
				c0.03,0.5,0.31,1.19,1.49,1.19c0.53,0,1.09-0.1,1.66-0.44c0.04-0.01,0.06,0.01,0.06,0.06L131.16,72.31z M130.79,67.97
				c0-0.25-0.12-0.61-0.76-0.61c-0.75,0-1.54,0.69-1.77,1.63C130.39,69.05,130.79,68.42,130.79,67.97z"/>
			<path class="st10" d="M133.85,67.8c0.09-0.56,0.17-1.04,0.19-1.41c0.01-0.05,0.01-0.08,0.09-0.08h1.18c0.05,0,0.06,0,0.08,0.05
				c0.01,0.12-0.01,0.4-0.04,0.66c0.57-0.54,1.16-0.84,2.01-0.84c0.88,0,1.88,0.52,1.5,2.63l-0.69,3.8
				c-0.01,0.05-0.03,0.08-0.08,0.08h-1.29c-0.06,0-0.09-0.03-0.08-0.09l0.7-3.99c0.13-0.74-0.06-1.18-0.65-1.18
				c-0.54,0-1.05,0.34-1.44,0.87c-0.09,0.12-0.16,0.25-0.18,0.41l-0.7,3.91c-0.01,0.04-0.03,0.06-0.08,0.06h-1.29
				c-0.06,0-0.09-0.03-0.09-0.08L133.85,67.8z"/>
			<path class="st10" d="M144.46,72.51c-0.01,0.05-0.03,0.09-0.09,0.12c-0.35,0.14-0.67,0.19-1.17,0.19c-1.55,0-2.76-0.96-2.76-2.82
				c0-2.15,1.63-3.82,3.73-3.82c0.56,0,0.88,0.05,1.11,0.16c0.06,0.03,0.06,0.05,0.05,0.1l-0.23,1.11
				c-0.01,0.05-0.04,0.05-0.09,0.04c-0.26-0.09-0.47-0.12-0.83-0.12c-1.35,0-2.21,1.09-2.21,2.41c0,0.94,0.5,1.63,1.63,1.63
				c0.38,0,0.65-0.04,1.02-0.17c0.06-0.03,0.08,0.01,0.06,0.06L144.46,72.51z"/>
			<path class="st10" d="M150.57,72.31c-0.01,0.08-0.05,0.1-0.12,0.13c-0.45,0.26-0.89,0.39-1.75,0.39c-1.53,0-2.59-0.88-2.59-2.72
				c0-2.02,1.41-3.92,3.44-3.92c1.49,0,1.97,0.84,1.98,1.7c0.01,1.44-1.2,2.28-3.99,2.24c0,0.05-0.01,0.16-0.01,0.21
				c0.03,0.5,0.31,1.19,1.49,1.19c0.53,0,1.09-0.1,1.66-0.44c0.04-0.01,0.06,0.01,0.06,0.06L150.57,72.31z M150.21,67.97
				c0-0.25-0.12-0.61-0.76-0.61c-0.75,0-1.54,0.69-1.77,1.63C149.8,69.05,150.21,68.42,150.21,67.97z"/>
			<path class="st10" d="M158.2,66.32c0.06,0,0.08,0.01,0.08,0.06c0.03,0.21-0.01,0.44-0.04,0.65c0.69-0.62,1.33-0.84,2.01-0.84
				c0.74,0,1.2,0.35,1.37,0.96c0.78-0.71,1.49-0.96,2.21-0.96c0.96,0,1.84,0.58,1.49,2.48l-0.7,3.92c-0.01,0.08-0.03,0.1-0.09,0.1
				h-1.28c-0.08,0-0.12-0.03-0.1-0.1l0.71-4.01c0.12-0.7-0.01-1.11-0.61-1.11c-0.41,0-0.97,0.26-1.42,0.89
				c-0.09,0.12-0.12,0.27-0.14,0.44L161,72.6c-0.01,0.07-0.04,0.09-0.1,0.09h-1.27c-0.06,0-0.09-0.04-0.08-0.1l0.7-3.95
				c0.13-0.76-0.03-1.18-0.6-1.18c-0.48,0-1.01,0.27-1.45,0.88c-0.06,0.09-0.13,0.19-0.17,0.41l-0.69,3.83
				c-0.03,0.08-0.03,0.1-0.1,0.1H156c-0.06,0-0.12-0.01-0.1-0.1l0.88-4.9c0.08-0.47,0.17-1.04,0.18-1.28c0-0.08,0.03-0.09,0.09-0.09
				H158.2z"/>
			<path class="st10" d="M171.86,72.25c-0.01,0.05-0.03,0.08-0.08,0.1c-0.74,0.32-1.41,0.46-2.21,0.46c-1.46,0-2.65-0.84-2.65-2.67
				c0-2.01,1.6-3.97,4.31-3.97c0.74,0,1.23,0.1,1.63,0.21c0.01,0.01,0.03,0.03,0.03,0.08L171.86,72.25z M171.24,67.45
				c-0.07,0-0.16-0.01-0.32-0.01c-1.36,0-2.48,1.07-2.5,2.65c0,0.83,0.47,1.47,1.48,1.47c0.27,0,0.45-0.03,0.65-0.1L171.24,67.45z"
				/>
			<path class="st10" d="M179.05,72.22c-0.01,0.06-0.04,0.1-0.09,0.13c-0.8,0.36-1.45,0.48-2.2,0.48c-1.5,0-2.73-0.87-2.73-2.77
				c0-2.07,1.64-3.87,3.93-3.87c0.27,0,0.47,0.01,0.66,0.05l0.47-2.64c0.01-0.05,0.04-0.08,0.09-0.09c0.34-0.03,1.25-0.09,1.32-0.09
				c0.05,0,0.08,0.01,0.08,0.08L179.05,72.22z M178.39,67.51c-0.15-0.07-0.38-0.08-0.61-0.08c-1.2,0-2.25,1.09-2.25,2.59
				c0,0.82,0.45,1.51,1.5,1.51c0.31,0,0.52-0.04,0.69-0.12L178.39,67.51z"/>
			<path class="st10" d="M185.78,72.31c-0.01,0.08-0.05,0.1-0.12,0.13c-0.45,0.26-0.89,0.39-1.75,0.39c-1.53,0-2.59-0.88-2.59-2.72
				c0-2.02,1.41-3.92,3.44-3.92c1.49,0,1.97,0.84,1.98,1.7c0.01,1.44-1.2,2.28-3.99,2.24c0,0.05-0.01,0.16-0.01,0.21
				c0.03,0.5,0.31,1.19,1.49,1.19c0.53,0,1.09-0.1,1.66-0.44c0.04-0.01,0.07,0.01,0.07,0.06L185.78,72.31z M185.42,67.97
				c0-0.25-0.12-0.61-0.76-0.61c-0.75,0-1.54,0.69-1.77,1.63C185.02,69.05,185.42,68.42,185.42,67.97z"/>
			<path class="st10" d="M192.68,66.32c0.05,0,0.08,0.01,0.09,0.06c0.31,2.06,0.53,4.06,0.56,4.68h0.01
				c0.59-1.18,1.54-3.21,2.21-4.67c0.01-0.05,0.03-0.08,0.1-0.08h1.32c0.06,0,0.09,0.03,0.06,0.09c-0.74,1.68-2.06,4.19-3.07,5.93
				c-0.92,1.57-1.57,2.43-1.86,2.89c-0.05,0.06-0.08,0.05-0.14,0.06l-1.47,0.09c-0.08,0-0.08-0.05-0.04-0.1
				c0.53-0.74,1.28-1.85,1.76-2.63c0.04-0.06,0.05-0.12,0.04-0.18c-0.12-0.65-0.78-4.44-1.02-6.07c-0.01-0.05,0.01-0.08,0.08-0.08
				H192.68z"/>
			<path class="st10" d="M203.48,68.9c0,1.88-1.19,3.92-3.38,3.92c-1.49,0-2.51-0.93-2.51-2.65c0-1.99,1.29-3.99,3.43-3.99
				C202.45,66.19,203.48,67.09,203.48,68.9z M199.08,70.17c0,0.74,0.31,1.4,1.14,1.4c0.98,0,1.75-1.25,1.75-2.77
				c0.01-0.66-0.26-1.37-1.09-1.37C199.85,67.43,199.08,68.75,199.08,70.17z"/>
			<path class="st10" d="M209.9,71.22c-0.1,0.53-0.16,1.12-0.17,1.38c0,0.05-0.01,0.08-0.08,0.08h-1.11c-0.08,0-0.12-0.03-0.13-0.09
				c-0.01-0.1,0-0.38,0.01-0.58c-0.66,0.66-1.33,0.8-1.89,0.8c-1.02,0-1.9-0.57-1.59-2.33l0.75-4.09c0.01-0.06,0.05-0.08,0.12-0.08
				h1.28c0.06,0,0.08,0.04,0.08,0.09l-0.74,4.02c-0.12,0.69,0.09,1.1,0.69,1.1c0.4,0,0.84-0.16,1.28-0.7
				c0.06-0.09,0.16-0.21,0.18-0.38l0.76-4.08c0-0.05,0.03-0.06,0.1-0.06h1.27c0.06,0,0.06,0.03,0.06,0.06L209.9,71.22z"/>
			<path class="st10" d="M214.07,66.32c0.08,0,0.1,0.01,0.12,0.06c0.03,0.17-0.03,0.87-0.08,1.11c0.56-0.76,1.46-1.31,2.26-1.31
				c0.06,0,0.09,0.03,0.08,0.12l-0.29,1.41c-0.01,0.05-0.04,0.08-0.08,0.08c-0.8,0.04-1.63,0.48-2.02,1.09
				c-0.08,0.09-0.12,0.17-0.13,0.29l-0.62,3.47c-0.01,0.04-0.03,0.06-0.09,0.06h-1.29c-0.05,0-0.09-0.04-0.08-0.09l0.83-4.68
				c0.12-0.6,0.18-1.11,0.21-1.54c0-0.06,0.05-0.06,0.1-0.06H214.07z"/>
			<path class="st10" d="M219.87,67.4c-0.7,0-0.98,0.34-0.98,0.65c0,0.27,0.12,0.47,0.76,0.78c1.04,0.52,1.63,1.04,1.63,1.94
				c0,1.33-1.06,2.06-2.51,2.06c-0.79,0-1.49-0.21-1.88-0.48c-0.06-0.05-0.05-0.1-0.04-0.17l0.25-1.13
				c0.01-0.04,0.04-0.05,0.08-0.03c0.54,0.36,1.11,0.56,1.71,0.56c0.67,0,0.94-0.31,0.94-0.63c0-0.31-0.21-0.53-0.83-0.88
				c-0.76-0.4-1.5-0.88-1.5-1.82c0-1.06,0.83-2.06,2.52-2.06c0.61,0,1.22,0.13,1.5,0.31c0.05,0.03,0.06,0.07,0.05,0.13l-0.25,1.06
				c-0.01,0.06-0.04,0.06-0.1,0.04C220.8,67.51,220.29,67.4,219.87,67.4z"/>
		</g>
		<g>
			<path class="st11" d="M110.34,37.82c0-0.11,0.02-0.16,0.16-0.18c0.64-0.02,2.15-0.07,4.19-0.07c5.21,0,7.82,2.95,7.82,7.07
				c0,5.41-4.12,7.58-7.87,7.58c-1.4,0-3.43,0-4.14-0.04c-0.09,0-0.16-0.07-0.16-0.2V37.82z M113.02,49.88
				c0.44,0.02,0.93,0.02,1.51,0.02c3.12,0,5.23-1.82,5.23-5.18c0-3.21-2.1-4.81-5.1-4.81c-0.62,0-1.11,0.02-1.64,0.04V49.88z"/>
			<path class="st11" d="M128.75,51.98c0,0.16-0.04,0.2-0.18,0.2h-2.33c-0.13,0-0.18-0.07-0.18-0.2V37.8c0-0.16,0.07-0.18,0.18-0.18
				h2.33c0.13,0,0.18,0.04,0.18,0.18V51.98z"/>
			<path class="st11" d="M139.43,46.35c-0.15-0.02-0.18-0.07-0.18-0.2v-1.97c0-0.11,0.07-0.13,0.16-0.13h5.01
				c0.16,0,0.18,0.04,0.18,0.18v7.22c0.02,0.11-0.02,0.18-0.13,0.2c-1.55,0.6-3.08,0.75-4.36,0.75c-5.18,0-7.78-3.3-7.78-7.4
				c0-4.61,3.28-7.6,8.17-7.6c1.49,0,2.79,0.15,3.59,0.53c0.09,0.04,0.13,0.13,0.13,0.27v2.13c0,0.13-0.09,0.16-0.18,0.11
				c-1-0.51-2.15-0.64-3.46-0.64c-3.57-0.04-5.49,1.91-5.49,5.12c0,2.88,1.77,5.14,5.14,5.14c0.75,0,1.24-0.07,1.68-0.2v-3.43
				L139.43,46.35z"/>
			<path class="st11" d="M151.26,51.98c0,0.16-0.04,0.2-0.18,0.2h-2.33c-0.13,0-0.18-0.07-0.18-0.2V37.8c0-0.16,0.07-0.18,0.18-0.18
				h2.33c0.13,0,0.18,0.04,0.18,0.18V51.98z"/>
			<path class="st11" d="M158.68,40.04h-4.5c-0.11,0-0.16-0.07-0.13-0.18l0.29-2.06c0.02-0.13,0.07-0.18,0.2-0.18h11.01
				c0.13,0,0.2,0.04,0.22,0.2l0.2,2.02c0.02,0.13-0.04,0.2-0.16,0.2h-4.48v11.94c0,0.13-0.07,0.2-0.18,0.2h-2.28
				c-0.16,0.02-0.2-0.04-0.2-0.2V40.04z"/>
			<path class="st11" d="M169.58,48.35L168.36,52c-0.04,0.13-0.11,0.18-0.24,0.18h-2.21c-0.13,0-0.18-0.07-0.16-0.22l4.56-12.98
				c0.09-0.22,0.16-0.44,0.2-1.2c0-0.09,0.04-0.15,0.13-0.15h3.08c0.11,0,0.13,0.02,0.16,0.13l5.12,14.22c0.02,0.13,0,0.2-0.13,0.2
				h-2.48c-0.11,0-0.18-0.04-0.22-0.13l-1.29-3.7H169.58z M174.16,45.93c-0.46-1.46-1.51-4.54-1.95-6.09h-0.02
				c-0.35,1.48-1.24,4.08-1.91,6.09H174.16z"/>
			<path class="st11" d="M182.05,52.18c-0.18,0-0.22-0.07-0.22-0.22V37.82c0-0.11,0.04-0.2,0.18-0.2h2.37
				c0.09,0,0.13,0.07,0.13,0.15v11.99h6.51c0.13,0,0.18,0.07,0.16,0.16L190.8,52c-0.02,0.16-0.09,0.18-0.2,0.18H182.05z"/>
		</g>
		<rect x="110.23" y="36.88" class="st7" width="3.91" height="3.81"/>
		<rect x="110.32" y="37.16" class="st11" width="2.24" height="2.24"/>
		<rect x="101.9" y="37.16" class="st12" width="2.24" height="2.24"/>
		<rect x="101.9" y="41.37" class="st12" width="2.24" height="2.24"/>
		<rect x="101.9" y="45.58" class="st12" width="2.24" height="2.24"/>
		<rect x="106.11" y="49.8" class="st11" width="2.24" height="2.24"/>
		<rect x="93.47" y="37.16" class="st13" width="2.24" height="2.24"/>
		<rect x="97.68" y="41.37" class="st14" width="2.24" height="2.24"/>
		<rect x="106.11" y="37.16" class="st11" width="2.24" height="2.24"/>
		<rect x="106.11" y="41.37" class="st11" width="2.24" height="2.24"/>
		<rect x="106.11" y="45.58" class="st11" width="2.24" height="2.24"/>
		<rect x="97.68" y="37.16" class="st14" width="2.24" height="2.24"/>
		<rect x="193.05" y="50.97" class="st11" width="24.69" height="1.21"/>
		<rect x="217.73" y="49.69" class="st11" width="3.23" height="3.57"/>
	</g>
</g>
</svg>
